<?xml version="1.0" encoding="utf-8"?>
<!-- Generator: Adobe Illustrator 23.0.3, SVG Export Plug-In . SVG Version: 6.00 Build 0)  -->
<svg version="1.1" id="Layer_1" xmlns="http://www.w3.org/2000/svg" xmlns:xlink="http://www.w3.org/1999/xlink" x="0px" y="0px"
	 viewBox="0 0 100 125" style="enable-background:new 0 0 100 125;" xml:space="preserve">
<style type="text/css">
	.st0{fill:#F38F0C;}
</style>
<path class="st0" d="M68,40.1c-1.7-2.7-3.6-3.2-4.8-3.2H39.5c-1.3,0-3.1,0.6-4.8,3.2c-0.2,0.3-5.3,7.5-5.3,19.2s5,18.9,5.2,19.2
	c1.7,2.7,3.6,3.2,4.8,3.2h23.7c1.3,0,3.1-0.6,4.8-3.2c0.2-0.3,5.3-7.5,5.3-19.2S68.1,40.4,68,40.1z M63.1,39.9
	c0.7,0,1.5,0.7,2.3,1.9c0,0,0.5,0.8,1.2,2.1h-4.7c-0.3-1.4-0.7-2.7-1.1-4H63.1z M52.8,39.9h4.9c0.4,1.3,0.8,2.6,1.2,4h-6.1
	C52.8,43.9,52.8,39.9,52.8,39.9z M44.9,39.9h4.9v4h-6.1C44.1,42.5,44.5,41.1,44.9,39.9z M37.2,41.7c0.7-1.2,1.6-1.9,2.3-1.9h2.3
	c-0.4,1.3-0.8,2.6-1.1,4H36C36.6,42.5,37.1,41.8,37.2,41.7z M34.6,46.9H68c0.2,0.6,0.5,1.3,0.7,2H34C34.2,48.2,34.4,47.5,34.6,46.9z
	 M60.6,59.3c0,2.5-0.1,5-0.4,7.4h-7.4V51.9h7.4C60.5,54.3,60.6,56.8,60.6,59.3z M49.8,51.9v14.8h-7.4c-0.3-2.4-0.4-4.9-0.4-7.4
	s0.1-5,0.4-7.4H49.8z M32.4,59.3c0-2.8,0.3-5.2,0.8-7.4h6.2c-0.2,2.4-0.4,4.9-0.4,7.4s0.1,5,0.4,7.4h-6.2
	C32.7,64.5,32.4,62.1,32.4,59.3z M39.5,78.7c-0.7,0-1.5-0.7-2.3-1.9c0,0-0.5-0.8-1.2-2.1h4.7c0.3,1.4,0.7,2.7,1.1,4H39.5z
	 M49.8,78.7h-4.9c-0.4-1.3-0.8-2.6-1.2-4h6.1C49.8,74.7,49.8,78.7,49.8,78.7z M57.7,78.7h-4.9v-4h6.1C58.5,76.1,58.1,77.5,57.7,78.7
	z M65.4,76.9c-0.7,1.2-1.6,1.9-2.3,1.9h-2.3c0.4-1.3,0.8-2.6,1.1-4h4.7C66,76.1,65.5,76.8,65.4,76.9z M68,71.7H34.6
	c-0.2-0.6-0.5-1.3-0.7-2h34.7C68.4,70.4,68.2,71.1,68,71.7z M63.2,66.7c0.2-2.4,0.4-4.9,0.4-7.4s-0.1-5-0.4-7.4h6.2
	c0.5,2.2,0.8,4.7,0.8,7.4c0,2.8-0.3,5.2-0.8,7.4H63.2z M41.8,31.8c-0.4,0.7-0.2,1.6,0.5,2.1c0.2,0.2,0.5,0.2,0.8,0.2
	c0.5,0,1-0.3,1.3-0.7c1.6-2.6,0.7-4.3,0-5.4c-0.5-1-0.7-1.4,0-2.5c0.4-0.7,0.2-1.6-0.5-2.1c-0.7-0.4-1.6-0.2-2.1,0.5
	c-1.6,2.6-0.7,4.4,0,5.5C42.3,30.4,42.5,30.7,41.8,31.8z M50,29c-0.4,0.7-0.2,1.6,0.5,2.1c0.2,0.1,0.5,0.2,0.8,0.2
	c0.5,0,1-0.3,1.3-0.7c1.6-2.6,0.7-4.3,0-5.4c-0.5-1-0.7-1.4,0-2.5c0.4-0.7,0.2-1.6-0.5-2.1c-0.7-0.4-1.6-0.2-2.1,0.5
	c-1.6,2.6-0.7,4.4,0,5.5C50.5,27.6,50.7,27.9,50,29z M58.2,31.8c-0.4,0.7-0.2,1.6,0.5,2.1c0.2,0.2,0.5,0.2,0.8,0.2
	c0.5,0,1-0.3,1.3-0.7c1.6-2.6,0.7-4.3,0-5.4c-0.5-1-0.7-1.4,0-2.5c0.4-0.7,0.2-1.6-0.5-2.1c-0.7-0.4-1.6-0.2-2.1,0.5
	c-1.6,2.6-0.7,4.4,0,5.5C58.7,30.4,58.9,30.7,58.2,31.8z"/>
</svg>
