<?xml version="1.0" encoding="utf-8"?>
<!-- Generator: Adobe Illustrator 23.0.3, SVG Export Plug-In . SVG Version: 6.00 Build 0)  -->
<svg version="1.1" id="Layer_1" xmlns="http://www.w3.org/2000/svg" xmlns:xlink="http://www.w3.org/1999/xlink" x="0px" y="0px"
	 viewBox="0 0 100 125" style="enable-background:new 0 0 100 125;" xml:space="preserve">
<style type="text/css">
	.st0{fill:#F38F0C;}
</style>
<g>
	<path class="st0" d="M31.2,21.4c1.4,0.9,3,1.4,4.6,1.4c1.2,0,2.4-0.3,3.5-0.7l0.9-0.4v-1c0-2.9-1.4-5.6-3.9-7.1
		c-2.4-1.5-5.5-1.8-8.1-0.6l-0.9,0.4v1C27.3,17.2,28.7,19.8,31.2,21.4z M34.7,16c1.3,0.8,2.1,2.1,2.4,3.6c-1.5,0.3-3,0.1-4.3-0.7
		c-1.3-0.8-2.1-2.1-2.4-3.6C31.9,15,33.4,15.2,34.7,16z"/>
	<path class="st0" d="M41.7,16.2c0.3,0.1,0.7,0.1,1,0.1c1.7,0,3.5-0.9,4.7-2.5l0.5-0.6l-0.2-0.7c-0.6-2.4-2.2-4-4.3-4.4
		c-2-0.4-4.2,0.5-5.7,2.4l-0.5,0.6l0.2,0.7C38,14.2,39.6,15.8,41.7,16.2z M42.7,11c0.7,0.1,1.3,0.7,1.7,1.5
		c-0.7,0.6-1.5,0.9-2.2,0.7c-0.7-0.1-1.3-0.7-1.7-1.5C41.2,11.1,42,10.9,42.7,11z"/>
	<path class="st0" d="M53.8,15.1c0.4,0.1,0.9,0.1,1.3,0.1c2.1,0,4.2-0.9,5.7-2.5l0.7-0.7l-0.4-0.9c-1-2.4-3.2-4.1-5.8-4.6
		c-2.6-0.4-5.2,0.5-7,2.4l-0.7,0.7l0.4,0.9C49,12.9,51.2,14.6,53.8,15.1z M54.8,9.5c1.2,0.2,2.3,0.9,3,1.9c-1,0.7-2.3,1-3.5,0.8
		s-2.3-0.9-3-1.9C52.3,9.5,53.6,9.2,54.8,9.5z"/>
	<path class="st0" d="M60,16.1c-2.5,1.5-4.1,4.1-4.3,7l-0.1,1l0.9,0.4c1.2,0.6,2.6,0.9,3.9,0.9c1.5,0,3-0.4,4.3-1.1
		c2.5-1.5,4.1-4.1,4.3-7l0.1-1l-0.9-0.4C65.7,14.6,62.5,14.7,60,16.1z M63.3,21.7c-1.3,0.8-2.9,0.9-4.4,0.5c0.4-1.5,1.3-2.7,2.6-3.5
		s2.9-0.9,4.4-0.5C65.5,19.6,64.6,20.9,63.3,21.7z"/>
	<path class="st0" d="M69,14.4L69,14.4c0.5,0,1,0,1.5-0.1l1-0.2l0.2-0.9c0.7-2.8,0-5.8-2-7.9c-1.9-2.1-4.9-3.1-7.8-2.6l-1,0.2
		l-0.2,0.9c-0.7,2.8,0,5.8,2,7.9C64.4,13.4,66.6,14.4,69,14.4z M63.5,5.5c1.5,0,3,0.7,4,1.8c1.1,1.1,1.6,2.6,1.5,4.1
		c-1.5,0-3-0.6-4-1.8C63.9,8.5,63.4,7,63.5,5.5z"/>
	<path class="st0" d="M91.3,7.9l-18.8,7.6l1.1,2.8l18.8-7.6c0.9-0.4,1.6-1.1,2-2c0.4-0.9,0.4-1.9,0-2.8c-0.8-1.9-2.9-2.8-4.7-2
		l-16.8,6.8l1.1,2.8l16.8-6.8c0.3-0.1,0.7,0,0.8,0.4C91.8,7.4,91.7,7.8,91.3,7.9z"/>
	<path class="st0" d="M46.4,16.5c-2.8,0.9-4.8,3.1-5.6,5.9l-0.2,0.9l0.8,0.6c1.5,1.2,3.4,1.9,5.3,1.9c0.9,0,1.8-0.1,2.6-0.4
		c2.8-0.9,4.8-3.1,5.6-5.9l0.2-0.9L54.4,18C52.2,16.2,49.1,15.6,46.4,16.5z M48.4,22.6c-1.4,0.5-3,0.3-4.3-0.4
		c0.6-1.3,1.8-2.4,3.2-2.9s3-0.3,4.3,0.4C51,21.1,49.8,22.1,48.4,22.6z"/>
	<path class="st0" d="M96.6,92.1l-1.8-25V67c0-2.2-2.9-3.4-6-4l3.9-32.2c0.1-0.2,0.1-0.4,0.1-0.7c0-0.5,0-1.1-0.9-1.6V22
		c0-2.6-2.1-4.7-4.7-4.7s-4.7,2.1-4.7,4.7v4.6c-1.8-0.2-3.8-0.3-6.2-0.5c0.2-1.6,0-3.3-0.7-4.8L75,20.2h-1c-2.9,0.1-5.6,1.6-7.1,4.1
		c-1.3,2.2-1.6,4.8-0.8,7.2c-1.1,0-2.2,0.1-3.4,0.1c-0.2-2.3-1.4-4.2-3.1-5.2c-2.2-1.2-4.9-1-7.3,0.6l-0.6,0.4v0.7
		c-0.1,1.3,0.1,2.5,0.6,3.6c-0.7,0-1.4,0-2.1,0c-0.3,0-0.5,0-0.8,0l-0.2-0.6c-0.6-2.4-2.1-4.1-4.2-4.6c-2-0.5-4.2,0.4-5.7,2.3
		l-0.5,0.6l0.2,0.7c0.1,0.5,0.3,1,0.5,1.5c-2.4-0.1-4.7-0.1-6.8-0.2c2-0.4,3.8-1.6,5-3.3l0.6-0.8l-0.5-0.8c-1.4-2.5-4-4.1-6.9-4.3
		c-2.9-0.2-5.7,1.1-7.4,3.5L23.3,26c-2.1,0.1-4,0.3-5.6,0.5v-4.6c0-2.6-2.1-4.7-4.7-4.7s-4.7,2.1-4.7,4.7v6.5
		c-0.9,0.5-0.9,1.1-0.9,1.6c0,0.2,0,0.4,0.1,0.5l2.7,22l-0.9-0.3c-1.7-0.5-3.4,0.5-4,2.2l-1.7,5.2c-0.3,0.8-0.2,1.7,0.2,2.5
		s1.2,1.4,2,1.6l5.9,1.6l0.3,2.8c0,0,0,0,0,0.1l1.1,9.3c1.1,6.8,24.4,8.7,36.9,8.7c4.5,0,8.8-0.2,13-0.5c0.8,0.8,1.8,1.5,2.8,1.9
		L65.6,92l0,0c-0.1,0.6,0,1.4,0.8,2.3c2.9,3.2,14.4,3.2,14.7,3.2l0,0C82.7,97.5,96.6,97.2,96.6,92.1L96.6,92.1L96.6,92.1z M81,68.7
		h-0.2c-5.6,0-9.2-1-10.3-1.7c1.1-0.7,4.7-1.8,10.5-1.8h0.2c5.6,0,9.2,1,10.3,1.7C90.4,67.7,86.8,68.7,81,68.7z M24.3,56.5L23.9,52
		c2.5,0.4,5.3,0.8,8,1l0.3,5.6L24.3,56.5z M12.2,44.8L12.2,44.8l-0.5-3.7c7.7,4,27,5.2,38.3,5.2s30.5-1.2,38.3-5.2l-0.4,3.7h-0.1
		C87.8,46.7,75,51,50,51S12.2,46.7,12.2,44.8z M19.2,33.7c0.2,2.3,0.4,4.6,0.6,7c-5.4-1.2-8.3-2.5-8.4-3.5h-0.1l-0.6-4.6
		C12.5,32.9,15.1,33.3,19.2,33.7z M31,34.4c0.1,2.6,0.3,5.2,0.4,8c-3.2-0.3-6-0.7-8.5-1.2c-0.2-2.5-0.5-4.9-0.7-7.3
		C24.9,34.1,27.9,34.3,31,34.4z M42.9,43.2c-3-0.1-5.8-0.3-8.5-0.5c-0.1-2.8-0.3-5.5-0.4-8.1c2.8,0.1,5.7,0.2,8.7,0.2
		C42.8,37.5,42.8,40.3,42.9,43.2z M66.2,34.6c-0.1,2.6-0.3,5.3-0.4,8.1c-2.6,0.2-5.4,0.4-8.4,0.5c0-2.9,0.1-5.7,0.1-8.4
		C60.4,34.7,63.4,34.6,66.2,34.6z M89.4,32.5l-0.6,4.6h-0.1c-0.1,0.9-3,2.3-8.5,3.5c0.2-2.4,0.4-4.7,0.6-7
		C85,33.3,87.7,32.9,89.4,32.5z M77.3,41.3c-2.5,0.4-5.3,0.8-8.5,1.2c0.2-2.7,0.3-5.4,0.4-8c3.1-0.1,6.1-0.3,8.8-0.5
		C77.7,36.3,77.5,38.8,77.3,41.3z M85.9,60.5c0,0.2-0.5,0.9-2.4,1.8c-1,0-1.8-0.1-2.2-0.1H81c-0.3,0-1.4,0-2.7,0.1l1-10.9
		c3.3-0.7,6.1-1.5,8.1-2.6L85.9,60.5L85.9,60.5z M35.2,59.5l-0.3-6.2c2.8,0.2,5.5,0.4,8.1,0.5l0.1,7.9L35.2,59.5z M46.2,62.6
		L46,53.9c1.4,0,2.8,0,4,0c1.3,0,2.6,0,4.1,0L54,64.7L46.2,62.6z M57.1,53.8c2.6-0.1,5.3-0.3,8-0.5L64.4,66
		c-1.4,0.1-2.9,0.2-4.4,0.3l-3-0.8L57.1,53.8z M67.6,65.8c-0.1,0-0.1,0-0.2,0l0.7-12.7c2.8-0.3,5.5-0.6,8.1-1.1l-1,10.6
		C72.1,63.1,68.7,64,67.6,65.8z M85.4,21.9c0-0.9,0.8-1.7,1.7-1.7s1.7,0.8,1.7,1.7v5.5c-0.9-0.2-2-0.4-3.4-0.6L85.4,21.9L85.4,21.9z
		 M69.5,25.9c0.8-1.3,2.1-2.2,3.6-2.5c0.4,1.5,0.2,3-0.6,4.3c-0.8,1.3-2.1,2.2-3.6,2.5C68.5,28.8,68.7,27.2,69.5,25.9z M75,29.3
		c0.1-0.1,0.1-0.3,0.2-0.4c5.7,0.4,9.3,0.8,11.5,1.1c-2.9,0.4-7.4,0.9-13.3,1.2C74,30.7,74.6,30,75,29.3z M54.6,29.2
		c1.3-0.6,2.5-0.7,3.5-0.1c0.9,0.5,1.4,1.5,1.6,2.7c-1.3,0-2.7,0-4.1,0.1C55.1,31.2,54.7,30.3,54.6,29.2z M54.4,34.8
		c0,2.7-0.1,5.6-0.1,8.5c-1.4,0-2.8,0-4.2,0s-2.9,0-4.2,0c0-2.9-0.1-5.7-0.1-8.5c1.4,0,2.9,0,4.4,0C51.5,34.8,53,34.8,54.4,34.8z
		 M42.1,30.2c0.7-0.6,1.5-0.9,2.2-0.7c0.7,0.2,1.3,0.7,1.7,1.6c-0.4,0.3-0.8,0.5-1.2,0.7c-0.4,0-0.7,0-1.1,0
		C43,31.6,42.4,31,42.1,30.2z M13.4,30c2.3-0.4,5.8-0.8,11-1.1c1,1.1,2.3,1.9,3.7,2.4C21.5,31,16.5,30.5,13.4,30z M30.7,25.3
		c1.5,0.1,2.9,0.8,3.9,1.9c-1.1,1-2.5,1.6-4.1,1.5c-1.5-0.1-2.9-0.8-3.9-1.9C27.7,25.8,29.1,25.2,30.7,25.3z M11.3,21.9
		c0-0.9,0.8-1.7,1.7-1.7s1.7,0.8,1.7,1.7v4.9c-1.4,0.2-2.5,0.4-3.4,0.6L11.3,21.9L11.3,21.9z M12.7,48.9c2,1,4.9,1.9,8.1,2.6
		l0.4,4.2l-8-2.2L12.7,48.9z M33,75.8c0.1,2.2,0.2,4.4,0.3,6.5c-2.5-0.3-4.7-0.6-6.7-1c-0.2-2.1-0.4-4.2-0.6-6.4
		C28.3,75.2,30.6,75.6,33,75.8z M36,76.1c2.5,0.2,5,0.4,7.4,0.5c0,2.2,0.1,4.4,0.1,6.5c-2.6-0.1-5-0.3-7.2-0.5
		C36.2,80.5,36.1,78.3,36,76.1z M15,67.8l-0.2-1.5l25.8,7.2C24.6,72.6,15.7,69.6,15,67.8z M16.2,77.3l-0.7-5.5
		c1.9,1,4.5,1.8,7.5,2.5c0.2,2.2,0.4,4.3,0.6,6.4C19,79.5,16.5,78.2,16.2,77.3z M46.5,83.2c0-2.1-0.1-4.3-0.1-6.5c1.3,0,2.5,0,3.6,0
		c0.7,0,1.5,0,2.2,0l1.5,0.4c0,2.1-0.1,4.1-0.1,6c-1.2,0-2.4,0-3.6,0C48.9,83.2,47.7,83.2,46.5,83.2z M56.7,78.3
		c1.8,1,3.3,2.6,4.3,4.5c-1.4,0.1-2.9,0.2-4.4,0.2C56.7,81.5,56.7,79.9,56.7,78.3z M63.7,81.5c-1.7-3.5-4.9-6.1-8.6-7.2l-2.4-0.7
		l0,0c0,0,0,0-0.1,0l-46-12.8c-0.1,0-0.1-0.1-0.2-0.1v-0.1l1.7-5.2c0-0.1,0.2-0.3,0.3-0.2L67,71.5l-0.9,12.8
		C65.1,83.6,64.3,82.7,63.7,81.5z M68.6,92.2L70,70.7l0.1-0.5c1.5,0.6,3.4,1,5.2,1.2c-0.1,3.6-0.1,7.3-0.2,11
		c-0.1,4-0.1,7.9-0.2,11.6C71.8,93.7,69.1,93,68.6,92.2z M81.1,94.5c-0.9,0-2,0-3.1-0.1c0.1-3.8,0.1-7.8,0.2-11.9
		c0.1-3.7,0.1-7.3,0.2-10.8c1.1,0.1,1.9,0.1,2.4,0.1h0.3c0.3,0,1.3,0,2.6-0.1c0.1,3.5,0.2,7.1,0.3,10.7c0.1,4,0.2,8.1,0.3,12
		C83.2,94.4,82.2,94.5,81.1,94.5z M87.2,94c-0.1-3.8-0.2-7.8-0.3-11.7c-0.1-3.7-0.2-7.4-0.3-11c1.8-0.2,3.8-0.7,5.3-1.3l1.6,22
		C93.1,92.6,90.8,93.5,87.2,94z"/>
</g>
</svg>
