<?xml version="1.0" encoding="utf-8"?>
<!-- Generator: Adobe Illustrator 23.0.3, SVG Export Plug-In . SVG Version: 6.00 Build 0)  -->
<svg version="1.1" id="Layer_1" xmlns="http://www.w3.org/2000/svg" xmlns:xlink="http://www.w3.org/1999/xlink" x="0px" y="0px"
	 viewBox="0 0 84.6 118" style="enable-background:new 0 0 84.6 118;" xml:space="preserve">
<title>Безымянный-10</title>
<path d="M60.9,76.3c-0.9,0.3-1.8,0.2-2.6-0.2c-1-0.6-1.7-1.4-2-2.5c-1.2-2.9-2-6-2.5-9.1c-0.1-0.8-0.1-1.5-0.1-2.3
	c0.1-2.8,0.5-5.6,1.3-8.4c0.1-0.7,0.5-1.4,1.1-1.8c0.2-0.1,0.4-0.2,0.5,0c0.2,0.2,0,0.4-0.2,0.5c-0.4,0.3-0.6,0.8-0.6,1.3
	c0.4-0.1,0.7-0.3,0.9-0.6c1-1.2,1.8-2.5,2.4-3.9c0.3-0.8,0.3-1-0.5-1.6c-2.1-1.7-5-2.4-7.6-1.7c-2,0.3-3.8,1.3-5.2,2.7
	c-1.7,1.6-3,3.4-4,5.5c-0.6,1.4-1,2.8-1.4,4.3c-0.7,3.2-1.4,6.4-2.2,9.6c-0.5,1.9-1.7,3.6-3.4,4.7c-1.5,1.2-3.5,1.1-4.9-0.2
	c-1.3-1.3-1.4-3.3-0.3-4.7c0.5-0.6,1.4-0.8,2.1-0.5c0.7,0.2,1.2,0.8,1.3,1.4c0.1,0.2,0,0.5-0.2,0.7c-0.4-0.1-0.3-0.5-0.5-0.7
	c-0.3-0.7-1.1-1.1-1.8-0.8c-0.3,0.1-0.6,0.4-0.8,0.7c-0.6,1-0.5,2.3,0.1,3.2c0.7,1,2,1.4,3.2,1.1c1.2-0.4,2.3-1.1,3-2.2
	c0.9-1.2,1.4-2.5,1.7-4c0.8-4.1,1.8-8.2,3-12.2c0.1-0.3,0.2-0.6,0-0.9c-0.5-1-0.7-2.2-0.5-3.4c0.1-1.8,0.4-3.5,0.8-5.3
	c0.5-2.1,1.3-4.1,2.3-6c0.6-1,1.4-1.9,2.3-2.6c1.1-1,2.4-1.8,3.7-2.6c1.3-0.7,2.7-0.9,4.1-0.8c1.6,0.1,3.2-0.6,4.1-1.9
	c1.5-1.8,2.8-3.6,4.1-5.6c0.1-0.2,0.2-0.4,0.4-0.6c0.3-0.3,0.3-0.8,0-1.1c0,0-0.1-0.1-0.1-0.1c-1-0.8-1.2-2.2-0.6-3.3
	c1.9-4.8,4.3-9.3,7.1-13.6c0.7-1.1,1.6-2.1,2.4-3.2c0.5-0.7,1-1.4,1.4-2.1c0.9-1.6,2.2-1.9,3.7-0.9c1.4,1,2.7,2.2,4.2,3.1
	c0.8,0.6,1,1.6,0.5,2.4c-0.3,0.7-0.7,1.4-1.2,2c-0.4,0.5-0.8,1.1-1,1.8c-0.4,1-1,1.9-1.6,2.7c-2.2,3.9-4.6,7.6-7.2,11.2
	c-0.5,0.7-1.2,1.3-1.9,1.8c-0.6,0.4-1.4,0.5-2.1,0.3c-0.7-0.2-1.4,0.1-1.7,0.8c-1.1,1.4-2.1,2.9-2.9,4.5c-0.2,0.5-0.4,1-0.5,1.5
	c-0.3,1.1,0.2,2.3,1.2,2.9c2.3,1.2,4.5,2.6,6.4,4.3c2,1.6,2.8,4.3,2,6.7c-0.9,3.1-2.1,6-3.6,8.8c-1.2,2.2-2.7,4.3-4.4,6.2
	c-1.4,1.8-3.9,2.5-6,1.7c-0.4-0.1-0.8-0.3-1.3-0.4c-0.7-0.2-0.9-0.1-0.8,0.7c0.1,1.6,0.4,3.2,0.9,4.7c0.5,1.4,0.9,2.8,1.4,4.3
	c0.6,2,1.7,3.2,3.9,3.3C60.6,75.9,60.8,75.9,60.9,76.3z M41.9,52.8c0.8-0.9,1.3-1.9,1.5-3c0.1-1,0.3-2,0.7-2.9
	c1-3.1,2.4-6.1,4.3-8.8c0.6-0.9,1.5-1.7,2.5-2.2c0.3-0.1,0.7-0.3,1-0.5c1.1-0.6,2.4-1,3.7-1c1.2-0.1,2.1,0.4,3.2,0.7
	c1.4,0.2,2.5,1.4,2.6,2.8c0.8,4.6-0.1,9.4-2.4,13.4c-0.8,1.5-1.9,2.8-3.2,3.9c-0.3,0.2-0.3,0.5-0.4,0.8c-0.4,1.8-0.7,3.6-0.8,5.4
	c-0.1,0.5,0.2,0.7,0.6,0.7c0.9,0.2,1.7,0.4,2.6,0.6c1.2,0.3,2.5,0,3.5-0.9c1.3-1.1,2.4-2.4,3.4-3.8c1.1-1.5,2-3.1,2.8-4.8
	c1.2-2.5,2.1-5.1,2.9-7.7c0.4-1.8-0.2-3.6-1.6-4.8c-0.9-0.8-1.8-1.6-2.8-2.2c-1.3-0.9-2.6-1.7-4-2.5c-1.2-0.6-1.8-1.9-1.5-3.2
	c0.1-0.5,0.2-1,0.4-1.4c0.5-1.3,1.2-2.5,2.1-3.7c0.5-0.6,0.9-1.2,1.4-1.9c0.2-0.2,0.2-0.5,0-0.7c0,0-0.1-0.1-0.1-0.1
	c-0.5-0.4-0.7-0.4-1.1,0.2c-1.3,1.9-2.6,3.9-4.1,5.7c-1.2,1.5-2.5,2.7-4.8,2.5c-1.6-0.2-3.2,0.2-4.5,1c-1,0.7-1.9,1.4-2.8,2.1
	c-1.5,1.2-2.6,2.7-3.2,4.5c-0.6,1.4-1,2.9-1.4,4.4c-0.5,2-0.7,4-0.6,6C41.3,52,41.5,52.5,41.9,52.8z M66.8,25.2c0.8,0,1.6-0.5,2-1.2
	c1.5-2.3,3.2-4.3,4.6-6.7c0.4-0.7,0.8-1.4,1.3-2c0.6-0.8,1.1-1.7,1.5-2.6c0.6-1.4,1.3-2.7,2.2-3.9C79,8,79.6,7.1,80.1,6.2
	c0.5-0.6,0.4-1.5-0.2-2.1C79.9,4.1,79.8,4,79.7,4c-1.2-0.9-2.5-1.7-3.6-2.6c-1.3-1-2.3-0.6-3.1,0.7c-0.3,0.6-0.7,1.1-1,1.6
	c-2.5,3.1-4.7,6.5-6.5,10c-1.2,2.3-2.2,4.8-3.2,7.2c-0.3,0.7-0.2,1.5,0.3,2c0.6,0.6,1.3,1.2,2.1,1.7C65.3,25,66,25.2,66.8,25.2z
	 M44.1,49.5c0.9-0.7,1.5-1.6,2.4-2.2c2.1-1.5,4.5-2.2,7-2.2c1.5,0,3,0.4,4.3,1.2c1.3,0.8,1.4,0.8,1.8-0.7c0-0.1,0-0.2,0.1-0.2
	c0.5-2.5,0.5-5-0.1-7.4c-0.1-1.1-0.9-2.1-2-2.4c-1.9-0.6-3.8-0.8-5.6,0.4c-0.3,0.2-0.6,0.3-0.9,0.4c-0.9,0.3-1.6,0.9-2.1,1.7
	c-1.5,2-2.8,4.2-3.7,6.5C44.8,46.1,44.3,47.8,44.1,49.5z"/>
<path d="M34.4,92.1c-1.6,0.2-3.3,0.1-4.9-0.2c-0.4-0.1-0.9,0-1.3,0.2c-0.8,0.5-1.7,0.8-2.6,0.7c-1.8-0.1-3.6,0.5-5.4,0.3
	c-1-0.1-2.1-0.1-3.1-0.3c-0.9-0.1-1.8-0.3-2.6-0.3c-1.6,0.1-2.9-1.2-2.9-2.7c0-0.1,0-0.3,0-0.4c-0.1-1.9,0.3-3.7,1.2-5.4
	c0.6-1.2,1.6-2,2.8-2.5c0.7-0.3,1.5-0.6,2.3-0.7c0.6-0.1,0.9-0.5,1.2-1.1c0.5-1.4,1.5-2.6,2.9-3.2c1.9-0.9,4.1-1.4,6.2-1.4
	c0.6,0,1.2-0.1,1.8-0.3c1.6-0.5,3.3-0.2,4.6,0.7c0.9,0.5,0.9,0.6,1.7-0.1c0.5-0.5,1.2-0.7,1.9-0.6c1.9,0,3.9,0.2,5.8,0.6
	c0.5,0.2,1.1,0,1.5-0.5c0.5-0.6,1.1-1,1.8-1.4c0.9-0.5,1.9-0.6,2.8-0.2c0.7,0.3,1.4,0.4,2.1,0.4c1.2,0,2.4,0.7,3,1.8
	c0.2,0.5,0.6,0.9,1.1,1.2c0.2,0.1,0.3,0.2,0.4,0.4c0.4,1,1.2,1,2.1,0.9c2-0.3,3.8,1.1,4,3.1c0,0.1,0,0.1,0,0.2
	c0,0.8,0.5,1.5,1.2,1.7c0.7,0.3,1.3,0.8,1.6,1.6c0.4,0.9,0.8,1.9,1,2.8c0.3,1.1-0.4,2.2-1.5,2.4c-0.2,0-0.4,0.1-0.6,0.1
	c-0.7,0-1.3,0.2-1.8,0.7c-0.7,0.6-1.6,0.9-2.6,0.9c-1.8-0.1-3.6-0.2-5.3-0.4c-0.6-0.1-0.9,0-0.9,0.6c-0.1,1.5-1.1,2.1-2.4,2.2
	c-3.6,0.5-7.2,0.6-10.8,0.4c-0.6-0.1-1.3-0.2-1.9-0.3c-0.7-0.1-1.2-0.6-1.4-1.2c-0.2-0.6-0.5-0.6-1-0.6
	C35.7,92.3,35.1,92.3,34.4,92.1z M20.3,92.6c1.9,0.2,3.9-0.3,5.8-0.3c1.8,0,2.8-1.1,3.4-2.6c0.9-2.1-0.2-5.7-2-7.2
	c-0.1-0.1-0.2-0.2-0.3-0.2c-1.9-1.3-4.3-1.8-6.6-1.4c-1.2,0.2-2.4,0.5-3.5,0.8c-2.1,0.4-3.8,1.9-4.5,4c-0.4,1.2-0.6,2.5-0.5,3.8
	c-0.2,1.1,0.6,2.2,1.7,2.4c0.1,0,0.1,0,0.2,0c1.2,0.2,2.4,0.3,3.6,0.5C18.6,92.6,19.4,92.6,20.3,92.6z M44.1,93.8
	c2.1,0,4.3-0.1,6.4-0.4c0.6,0,1.1-0.1,1.7-0.3c1.1-0.5,1.4-1.2,0.7-2.2c-0.1-0.2-0.2-0.3-0.1-0.5c0.4-0.5,0-1-0.2-1.5
	c-0.4-0.9-1-1.7-1.8-2.4c-1.7-1.9-2.7-1.6-4.3-0.8c-0.7,0.4-1.6,0.6-2.4,0.6c-0.6,0-1.1,0-1.7,0c-1.3,0.2-2.5,0.9-3.3,2
	c-0.7,1.2-1,2.5-1.1,3.9c0,0.4,0.2,0.8,0.6,0.9c0.4,0.2,0.9,0.4,1.4,0.4C41.4,93.8,42.7,93.8,44.1,93.8z M29.4,91.2
	c2.2,0.6,4.3,0.4,6.4,0.4c1.3,0,1.5-0.2,1.8-1.4c0.4-1.7,1.5-3.2,3-4c0.1,0,0.1-0.1,0.2-0.1c0.2-0.1,0.3-0.3,0.3-0.5c0,0,0,0,0-0.1
	c-0.4-1.4-1.3-2.6-2.6-3.3c-1.1-0.6-2.2-0.5-3.3-0.7c-1.9-0.4-3.5,0.5-4.9,1.6c-0.8,0.5-1,1.5-0.5,2.2c0,0,0,0.1,0.1,0.1
	c0.4,0.8,0.6,1.8,0.5,2.7C30.3,89.2,29.9,90.3,29.4,91.2z M57.6,82.3c-0.1-1.5-0.5-3-1.2-4.3c-0.2-0.4-0.6-0.8-1-1
	c-0.8-0.4-1.8-0.3-2.5,0.3c-1.3,0.9-2.9,1.1-4.4,0.7C48.3,78,48,77.8,47.8,78c-0.7,0.6-1.7,0.7-2.2,1.5c-1,1.2-1.5,2.6-1.5,4.1
	c0.1,1.9,0.5,2.5,2.3,1.5c0.1,0,0.2-0.1,0.2-0.1c0.9-0.6,2.1-0.7,3.1-0.2c0.3,0.2,0.7,0.1,1-0.1c1.8-1.2,3.7-1.9,5.8-1.1
	c0.6,0.2,0.8-0.1,1-0.5C57.6,82.8,57.6,82.6,57.6,82.3z M29.1,83.6c1.5-1.6,3.5-2.6,5.8-2.7c1.3-0.1,1.4-0.2,1.2-1.5
	c0-0.1,0-0.2-0.1-0.4c-0.3-2.4-2.5-4.1-4.9-3.8c-0.1,0-0.2,0-0.3,0.1c-1,0.2-2,0.4-3,0.4c-1.9,0.1-3.8,0.5-5.5,1.3
	c-1.1,0.4-2,1.2-2.5,2.2c-0.1,0.3-0.4,0.6-0.2,0.9c0.2,0.4,0.6,0.1,0.9,0.1c0.4,0,0.8-0.1,1.2-0.1c1-0.2,1.9-0.1,2.9,0.2
	C26.2,81.1,28.1,81.6,29.1,83.6L29.1,83.6z M43.8,85.4c-0.5-1.6-0.4-3.3,0.4-4.8c0.5-0.9,1.1-1.8,1.9-2.5c0.4-0.5,0.4-0.7-0.1-1
	c-0.1-0.1-0.2-0.1-0.3-0.2c-2.6-1.3-5.4-1.4-8.3-1.4c-0.9,0.1-1.5,0.8-1.4,1.7c0,0.1,0,0.3,0.1,0.4c0.1,0.4,0.2,0.9,0.3,1.3
	c0.2,0.7-0.1,1.5,0.4,2c0.5,0.4,1.2,0.7,1.8,0.9c1.3,0.5,2.3,1.6,2.7,2.9c0.4,1.1,0.4,1.1,1.5,1C43.3,85.6,43.6,85.6,43.8,85.4
	L43.8,85.4z M59.1,90.9c0.8,0.1,1.6,0,2.4-0.2c1-0.3,1.6-1.3,1.3-2.4c-0.1-0.3-0.2-0.6-0.5-0.8c-0.4-0.7-1.1-1.1-1.9-1.2
	c-1.2-0.2-2.2-0.7-3.1-1.5c-0.1-0.1-0.3-0.2-0.4-0.3c-1.8-0.9-4-0.7-5.7,0.5c-0.3,0.2-0.3,0.5-0.2,0.8c0,0,0.1,0.1,0.1,0.1
	c0.1,0.2,0.3,0.4,0.5,0.5c1,0.8,1.6,1.9,1.8,3.1c0,0.5,0.4,0.8,0.9,0.8C56,90.6,57.6,90.9,59.1,90.9L59.1,90.9z M61.1,82.5
	c-1,0-1.9,0.3-2.7,0.8c-0.7,0.4-0.7,1,0,1.4c0.5,0.4,1.1,0.7,1.7,0.8c0.6,0,1.2,0.2,1.7,0.5c0.9,0.6,1.5,1.5,1.8,2.5
	c0.2,0.8,0.5,0.9,1.2,0.7c0.9-0.3,1.3-0.8,1-1.8c-0.2-0.9-0.6-1.8-1-2.7c-0.4-0.9-1.2-1.1-1.9-1.6C62.5,82.8,61.8,82.5,61.1,82.5
	L61.1,82.5z M54.4,76c-0.7-1.3-1.2-1.6-2.5-1.6c-0.6,0-1.3-0.1-1.9-0.3c-2-0.8-3.2,0.3-4.3,1.3c-0.3,0.2-0.3,0.5,0.1,0.7
	c0.9,0.4,1.6,1.5,2.8,1.3c0.1,0,0.2,0,0.4,0.1c0.6,0.2,1.2,0.2,1.8,0C52.1,77.3,53.1,76.4,54.4,76z M61.9,81.9c0.1-0.7,0-1.4-0.4-2
	c-0.7-1.2-2.5-1.4-3.6-1.1c-0.4,0.1-0.3,0.4-0.2,0.7c0.3,0.7,0.5,1.5,0.6,2.3c0,0.4,0.2,0.6,0.6,0.5C59.9,81.9,60.9,81.8,61.9,81.9z
	"/>
<path d="M38.1,39.8c-0.2-0.1-0.2-0.3-0.2-0.5c0-0.5,0.3-1-0.3-1.3c-0.6-0.3-1.2-0.8-1.9-0.4c-0.6,0.3-0.7,0-0.7-0.5
	c0-0.6,0-1.1-0.1-1.7c-0.1-0.4-0.4-0.8-0.8-1c-1.9-0.8-4,0.1-4.8,1.9c-0.3,0.4-0.3,0.9-0.1,1.3c0.1,0.3,0.2,0.6-0.1,0.7
	c-0.3,0.1-0.4-0.1-0.6-0.3c-0.8-1.2-2.5-1.5-3.7-0.6c-0.2,0.1-0.3,0.3-0.5,0.4c-0.8,1-1.3,2.1-1.4,3.4c-0.1,1.6,0.9,3,2.4,3.5
	c0.3,0.1,0.5,0.2,0.4,0.5c-0.1,0.3-0.4,0.2-0.6,0.1c-1.6-0.6-2.7-2.2-2.7-4c0.1-1.3,0.5-2.5,1.3-3.6c0.9-1.2,2.5-1.7,4-1.2
	c0.6,0.3,0.9,0.3,1.2-0.4c0.5-1.2,1.6-2.1,2.8-2.4c1.1-0.3,2.3-0.1,3.3,0.5c0.5,0.4,0.8,1,0.7,1.6c0,0.6,0.4,1.1,1,1.1
	c0,0,0.1,0,0.1,0c0.2,0,0.4,0.1,0.6,0.2C38.6,37.6,38.9,38.4,38.1,39.8z"/>
<path d="M75.4,69c-0.3-0.5,0-0.8,0.1-1c0.3-0.9,0.3-0.9-0.6-1.3c0-0.4,0.3-0.6,0.5-0.8c0.7-0.8,0.5-2.1-0.3-2.7
	c-0.2-0.2-0.4-0.3-0.6-0.3c-1.1-0.5-2.4-0.6-3.6-0.2c-2.8,0.8-5.1,2.8-6.2,5.5c-0.8,1.7-0.9,3.6-0.2,5.3c0.2,0.5,0.6,1,1.1,1.2
	c0.2,0.1,0.3,0.2,0.5,0.4c0.1,0.1,0.1,0.3,0,0.4c-0.1,0.2-0.3,0.1-0.4,0.1c-0.7-0.3-1.2-0.8-1.6-1.5c-0.9-1.8-0.9-3.9-0.2-5.8
	c1.2-3.1,3.8-5.5,7-6.4c1.4-0.5,2.9-0.3,4.2,0.5c1.2,0.5,1.7,1.8,1.2,3c0,0.1-0.1,0.2-0.1,0.3c-0.1,0.3-0.1,0.6,0,0.9
	C76.6,67.5,76.2,68.5,75.4,69z"/>
<path d="M77,69.5c0-2.3,1.8-3.5,3.7-2.5c1.7,0.9,2.1,1.6,1.5,3.5c-0.1,0.5-0.1,0.7,0.4,0.9c1.8,0.9,2.5,3,1.6,4.7
	c-0.1,0.2-0.2,0.4-0.4,0.6c-0.1,0.2-0.3,0.5-0.5,0.5c-0.9,0.2-0.7,0.7-0.5,1.3c0.5,1.5-0.3,3.1-1.8,3.6c-0.4,0.1-0.7,0.2-1.1,0.1
	c-0.2,0-0.5,0-0.6-0.4c0.1-0.4,0.5-0.2,0.7-0.2c1.2,0.1,2.2-0.7,2.3-1.9c0-0.3,0-0.7-0.1-1c-0.1-0.2-0.2-0.5-0.3-0.7
	c-0.3-0.5-0.1-0.9,0.4-1c1.4-0.3,1.4-1.4,1.6-2.4c0.1-1-0.4-2-1.2-2.5c-0.3-0.2-0.7-0.3-1-0.2c-0.3,0-0.5,0.2-0.8,0.2
	c-0.2,0-0.4,0.1-0.5-0.2c-0.1-0.2,0.1-0.4,0.2-0.5c0.7-0.4,1.1-1,1.2-1.7c0.2-1.1-0.6-2.2-1.7-2.4c-1-0.3-2,0.2-2.5,1.1
	C77.5,68.8,77.5,69.3,77,69.5z"/>
<path d="M8.1,76.4c-0.1,2.3,0,2.3,2.1,2C9.8,78.9,9,79.2,8.3,79c-0.9-0.3-0.9-1.1-1.1-1.8c-0.4-0.1-0.7,0.1-1,0.2
	c-1.8,0.4-3.6-0.8-4-2.6c0-0.1,0-0.1,0-0.2c-0.4-1.7,1.1-3.5,2.9-3.8c0.8-0.1,1.4,0.5,2.1,0.8c0,0,0.1,0.1,0.1,0.2
	c0,0.1-0.1,0.2-0.2,0.2c0,0,0,0,0,0c-0.3-0.1-0.5-0.1-0.8-0.2C5,71.3,3.5,72,3.1,73.2c-0.1,0.3-0.2,0.6-0.1,1
	c0.1,1.5,1.4,2.7,2.9,2.6c0.2,0,0.4-0.1,0.7-0.1C7,76.6,7.5,76.2,8.1,76.4z"/>
<path d="M41.3,72.8c1.1-2.7,1.1-5.4,1.5-8c0.2-2.2,0.8-4.4,1.7-6.5c0.5-1.1,1.4-2.1,2.4-2.8c0.3-0.3,0.8-0.4,1.2-0.4
	c0,0.4-0.2,0.5-0.4,0.6c-2.1,1.3-3,3.4-3.6,5.6c-0.6,2.7-1,5.4-1.2,8.1c-0.2,0.9-0.4,1.7-0.6,2.6C42.1,72.4,41.7,72.8,41.3,72.8z"/>
<path d="M23.2,45.9c-0.3,0.1-0.5,0.1-0.6,0.2c-0.7,0.3-0.8,0.4-0.6,1.1c0.2,0.6,0.2,0.9-0.4,1.3c-0.6,0.4-0.7,1-0.6,1.7
	c0.2,1.3,0.8,2.4,1.8,3.2c1.3,1.3,2.9,2.4,4.6,3.3c0.7,0.4,1.5,0.6,2.3,0.6c0.2,0,0.3,0.1,0.3,0.3c0,0.2-0.1,0.3-0.3,0.3
	c0,0-0.1,0-0.1,0c-0.9-0.1-1.8-0.4-2.7-0.8c-2.3-1.1-4.2-2.7-5.8-4.7c-1.1-1.3-1.1-3.2,0-4.5c0.2-0.3,0.1-0.6,0.1-0.9
	C21.1,45.8,21.9,45.3,23.2,45.9z"/>
<path d="M3.9,62.4c-1.3-0.6-1.5-1.3-1-2.3c0.7-1.6,2.3-2.7,4.1-2.7c0.3,0,0.6-0.1,1-0.1c0.8,0.2,1.6-0.3,2-1c0.5-0.7,1.4-1.1,2.2-1
	c1.2,0,2.3,0.4,3.3,1.1c0.4,0.3,0.7,0.7,0.6,1.3c-0.4-0.4-0.9-0.8-1.4-1.1c-0.5-0.2-1-0.4-1.5-0.6c-0.6-0.2-1.4-0.2-2,0.1
	c-0.8,0.2-1.2,1-1.2,1.8c0,0.6-0.1,0.6-0.7,0.4c-2.3-1-5,0-6,2.3C3.1,61.2,3.5,61.7,3.9,62.4z"/>
<path d="M73.6,79.3c0.2-0.1,0.2-0.2,0.3-0.2c0.3-0.1,0.7-0.2,0.6-0.6c-0.2-0.4-0.5-0.6-1-0.6c-0.3,0-0.8,0.5-1-0.1
	c-0.1-0.5,0.4-0.5,0.7-0.7c0.7-0.6,1-1.3,0.6-1.8c-0.6-0.5-1.5-0.6-2.1-0.2c-0.5,0.3-0.9,0.8-1.1,1.4c0,0.1-0.2,0.3-0.4,0.2
	c-0.2-0.1-0.2-0.2-0.2-0.4c0.2-0.9,0.9-1.6,1.7-1.9c0.7-0.4,1.6-0.4,2.3,0.1c0.7,0.4,0.9,1.3,0.5,1.9c-0.5,0.7-0.2,0.9,0.3,1.3
	c0.4,0.3,0.6,0.6,0.3,1.1C74.8,79.4,74.4,79.5,73.6,79.3z"/>
<path d="M2.4,80.2c-0.8,0.3-1.8,0.5-1.8,1.6c-0.1,1.2,1,1.1,1.6,1.4c0.1,0.2,0,0.4-0.1,0.5c-0.6,0.8-0.5,1.3,0.3,1.9
	c0.7,0.4,1.6,0.5,2.3,0.1c0.7-0.3,1.4-0.6,2.1-0.8c-1.1,0.8-2.2,1.8-3.8,1.6c-1.2-0.1-2.1-1.1-2-2.2c0,0,0-0.1,0-0.1
	c0.1-0.3-0.1-0.5-0.3-0.6c-0.8-0.6-1-1.7-0.5-2.6C0.6,80,1.3,79.8,2.4,80.2z"/>
<path d="M23.9,66.5c0-0.9,0.1-1.6,0-2.2c-0.3-3.1-1.9-5.8-4.4-7.6c-1.1-0.8-1.7-0.7-2.6,0.3c-0.1,0.1-0.2,0.1-0.3,0.1
	c0.3-1.6,0.7-1.8,2.2-1.4c0.7,0.3,1.3,0.7,1.8,1.2c2,1.7,3.3,4,3.8,6.6C24.5,64.5,24.4,65.5,23.9,66.5z"/>
<path d="M6.3,70.4c-2.4,0.3-4.6-1.2-5.1-3.5c-0.2-1.6,0.8-3.1,2.3-3.7c0.2,0,0.4-0.1,0.5,0.1c0.1,0.2-0.1,0.4-0.3,0.5
	C3.5,64,3.3,64.1,3,64.2c-2.5,1.9-0.8,4.5,1.2,5.3C5,69.7,5.7,70,6.3,70.4z"/>
<path d="M47.2,66c0-0.1-0.1-0.2-0.1-0.3c0.4-2,0.1-4,0.2-6c0-1.3,0.6-2.6,1.4-3.6c0.1-0.1,0.2-0.2,0.3-0.2c0.1,0,0.2,0,0.3,0
	c0.2,0.3-0.1,0.5-0.2,0.7c-0.8,1.1-1.2,2.5-1.2,3.9c0,1.1,0,2.1,0,3.2c0,0.9-0.2,1.7-0.5,2.5L47.2,66z"/>
<path d="M34,48.3c-0.6-0.4-1.1-0.9-1.7-1.3c-0.9-0.6-1.4-0.5-2,0.5c-0.2,0.3-0.4,0.7-0.6,1.1c-0.5,0.8-0.3,1.7,0.4,2.3
	c0.1,0.1,0.3,0.2,0.2,0.4c-0.8,0-1.4-0.6-1.5-1.4c-0.1-1.3,0.5-2.6,1.5-3.4c0.3-0.3,0.8-0.4,1.2-0.3c1,0.4,1.9,1,2.5,1.9L34,48.3z"
	/>
<path d="M74.4,83.6c0,0.6-0.2,1.1-0.7,1.5c-0.5,0.6-1.3,0.6-1.8,0.2c-0.2-0.1-0.5-0.3-0.7-0.4c-0.2-0.1-0.5-0.3-0.3-0.5
	c0.2-0.3,0.4-0.1,0.6,0c0.2,0.1,0.3,0.2,0.5,0.3c0.4,0.4,1.1,0.3,1.4-0.2c0.1-0.1,0.2-0.2,0.2-0.4c0.3-0.9,0-1.9-0.8-2.4
	c-0.2-0.1-0.7-0.1-0.5-0.5c0.2-0.4,0.6-0.4,0.9-0.1C74,81.7,74.4,82.6,74.4,83.6z"/>
<path d="M10.1,66.1c-1.1-0.1-1.9-1-1.8-2c0-0.1,0-0.2,0-0.3c0.2-0.8,0.8-1.5,1.6-1.6c0.9,0.1,1.6,0.6,2,1.3c0.1,0.1,0,0.3-0.1,0.4
	c-0.1,0-0.2,0-0.3,0c-0.2-0.2-0.3-0.4-0.5-0.5c-0.6-0.6-1.1-0.7-1.5-0.4c-0.5,0.5-0.7,1.2-0.6,1.9C9.2,65.3,9.7,65.5,10.1,66.1z"/>
<path d="M17.6,64.2c-1-1.2-1.5-1.8-2.4-0.2c-0.5-0.1-0.6-0.9-1.2-0.6c-0.5,0.3-0.3,0.9-0.3,1.5c-0.6-0.3-0.8-1-0.5-1.6
	c0,0,0.1-0.1,0.1-0.1c0.3-0.5,0.6-0.7,1.2-0.4c0.3,0.2,0.8,0.2,1.1-0.1c0.5-0.4,1.1-0.1,1.5,0.2C17.5,63.1,18,63.4,17.6,64.2z"/>
<path d="M51.4,65.8c0.5,2.1-0.2,4.3,1.6,6c-0.6,0-1.1-0.3-1.3-0.8C51.1,69.3,51,67.6,51.4,65.8z"/>
<path d="M38.7,45.1c-0.3-0.3-0.2-0.6-0.2-0.9c-0.2-1-0.6-1.2-1.5-0.7c-0.2,0.1-0.4,0.2-0.5,0c-0.1-0.2,0-0.4,0.2-0.5
	c0.6-0.5,1.4-0.4,1.9,0.1c0.2,0.2,0.3,0.5,0.3,0.7C39,44.3,38.9,44.7,38.7,45.1z"/>
<path d="M23.5,82c-0.4,0.2-0.9,0.3-1.3,0.2c-1,0-2.1,0.1-3.1,0.3c-1.9,0.4-3.4,1.6-4.2,3.3c-0.1,0.2-0.2,0.4-0.3,0.5
	c0,0.1-0.1,0.1-0.2,0.1c-0.1-1.2,0.5-2.3,1.5-3c1.3-1,2.9-1.6,4.6-1.7c0.9-0.1,1.8-0.1,2.7,0C23.2,81.7,23.4,81.7,23.5,82z"/>
<path d="M13.8,90.8c-0.6-1.5-0.5-1.9,0.5-2.7c0.3,0.5-0.2,0.9-0.3,1.3C14,89.8,14.1,90.3,13.8,90.8z"/>
<path d="M44,88.4c-1.6,0.1-3.2,0.5-4.6,1C40.6,88.2,42.4,87.8,44,88.4z"/>
<path d="M39,91.4c0.4-1.2,1-1.8,2.2-1.6c-0.1,0.7-1,0.3-1.1,0.8C40,91.1,39.7,91.2,39,91.4z"/>
<path d="M49.2,89.2c0.6-0.4,1.4-0.1,2-0.5c0.1-0.1,0.3-0.1,0.3,0c0,0,0,0,0,0.1c0.1,0.2,0,0.3-0.2,0.4
	C50.7,89.5,49.9,89.5,49.2,89.2z"/>
<path d="M49.9,91c0.6-0.5,1.4-0.3,2.1-0.7c0,0,0.2,0,0.2,0.1c0.1,0.1,0.1,0.2,0,0.3C52,90.9,51.8,91,51.5,91
	C51,91.1,50.4,91.1,49.9,91z"/>
<path d="M34,83c-1.2,0.2-2.3,0.5-3.3,0.9C31.3,82.9,32.8,82.5,34,83z"/>
<path d="M39.6,77.2c1.2-0.4,2.6-0.1,3.6,0.7C42,77.6,40.8,77.4,39.6,77.2z"/>
<path d="M55.8,84.8c0.7,1.1,1.9,1.2,3,1.5c0.5,0.1,1.1,0.3,1.6,0.6c0.7,0.2,1,1,0.8,1.6c-0.1,0.2-0.2,0.4-0.4,0.6
	c-0.1,0-0.2-0.1-0.2-0.1c0.2-1.3,0.1-1.4-1.1-1.8c-0.8-0.3-1.5-0.5-2.3-0.7c-0.5-0.1-1-0.4-1.3-0.8C55.7,85.4,55.5,85.2,55.8,84.8z"
	/>
</svg>
