<?xml version="1.0" encoding="utf-8"?>
<!-- Generator: Adobe Illustrator 23.0.3, SVG Export Plug-In . SVG Version: 6.00 Build 0)  -->
<svg version="1.1" id="Layer_1" xmlns="http://www.w3.org/2000/svg" xmlns:xlink="http://www.w3.org/1999/xlink" x="0px" y="0px"
	 viewBox="0 0 81.1 118.9" style="enable-background:new 0 0 81.1 118.9;" xml:space="preserve">
<title>Безымянный-46</title>
<path d="M47.8,15.8c2.8,0.6,5.6,1.4,8.3,2.4c2.2,0.8,4.4,1.8,6.6,2.8c3.6,1.7,6.6,4.2,9.6,6.6c2.6,2.3,5,4.9,7.1,7.7
	c0.5,0.6,0.9,1.3,1.2,2c0.5,1.1,0.5,2.3,0.1,3.4c-0.5,2.2-1.2,4.3-2.1,6.3c-2,4.1-3.6,8.5-4.7,12.9c-0.6,2.5-0.9,5-1.5,7.5
	c-0.7,3.3-1.5,6.5-2.6,9.7c-1.1,3-2,6.1-4.1,8.5c-0.7,2-2.7,2.6-4.3,3.5c-1.5,0.8-3.2,1-4.9,0.7c-1.1-0.1-2.1-0.6-2.9-1.4
	c-1.1-1.1-2.2-2.1-2.4-3.8c-0.1-0.9,0-1.7,0.3-2.5c0.5-1.4,1.1-2.7,1.7-4c0.3-0.7,0.5-1.5,0.6-2.4c0.1-0.7-0.2-1.4-0.8-1.7
	c-0.6-0.3-1.1,0-1.6,0.4c-0.7,0.5-1.4,1.2-1.9,1.9c-2.5,3.3-4.8,6.8-7.7,9.7c-2.5,2.8-5.5,5.1-8.8,6.7c-4.1,1.8-8.7,2.6-13.2,2.3
	c-2.5-0.1-5-0.4-7.4-0.8c-1.8-0.4-3.5-1.1-4.9-2.3c-1-0.6-1.9-1.4-2.7-2.2c-1-1.4-1.9-2.8-2.7-4.2c-0.7-1.2-1.2-2.6-1.6-3.9
	c-0.5-1.9-0.6-4-0.4-6C0.2,74,0.5,72.3,1,70.7c0.7-2.3,1.2-4.6,2-6.9c1.1-2.9,2.4-5.6,4-8.2c3.9-6.2,8.5-11.9,13.5-17.2
	c3.1-3.2,6.2-6.4,9.5-9.4c2.5-2.3,5.2-4.3,7.8-6.4c1.6-1.2,3.2-2.6,4.8-3.9c1.1-0.9,1.8-2.3,1.9-3.7c0.2-1.9,0.3-3.9,0.5-5.8
	c0.3-2.4,1.2-4.7,2.6-6.7c0.9-1.2,2.2-2.1,3.7-2.4c1.1-0.3,2.2,0,3,0.8c2,1.8,2,3.8,1.2,6.1c-1,2.8-3,4.6-5.3,6.2
	C49.3,13.9,48.4,14.7,47.8,15.8z M0.7,77.4c0,1.8,0.3,3.6,0.9,5.3c0.7,1.7,1.6,3.4,2.5,4.9c1.2,2,3,3.6,5.2,4.6
	c1.7,0.9,3.5,1.5,5.4,1.7c3,0.4,6,0.5,9,0.5c4.3-0.2,8.4-1.6,12-3.9c3.6-2.5,6.7-5.6,9.2-9.2c1.5-2.1,3-4.1,4.6-6.1
	c0.7-1.1,1.8-1.8,3.1-2.1c0.5-0.2,1.1,0.1,1.3,0.6c0.6,1,0.7,2.3,0.3,3.4c-0.6,1.7-1.3,3.5-2,5.2c-0.5,1.3-0.4,2.7,0.4,3.8
	c1.3,2,3,3.4,5.6,3.1c0.8-0.1,1.5-0.2,2.3-0.4c1.4-0.5,2.7-1.4,3.6-2.5c0.6-0.5,1.1-1.2,1.4-2c0.2-0.6,0.6-1.2,1.1-1.5
	c0.3-0.2,0.5-0.6,0.6-0.9c1.1-2.4,2-4.8,2.7-7.3c1-3.5,1.8-7.1,2.4-10.8c0.9-4.9,2.3-9.7,4.4-14.3c1.2-2.7,2.3-5.4,3.2-8.2
	c0.7-1.9,0.4-4.1-1-5.6c-1.2-1.3-2.3-2.7-3.3-4.2c-0.2-0.3-0.4-0.5-0.7-0.7c-1.6-1.5-3.3-2.9-4.9-4.4c-3.2-2.7-6.8-4.9-10.7-6.5
	c-2.7-1.2-5.5-2.2-8.3-2.9c-1.3-0.4-2.7-0.6-4-0.7c-1-0.1-1.9,0.3-2.5,1.1c-0.5,0.6-1.1,1.2-1.7,1.8c-2.4,2.2-5.2,4.1-7.8,6.2
	c-3.2,2.5-6.2,5.2-9,8.1c-2,2.1-4.1,4-6,6.2c-2,2.3-4.1,4.6-6,7c-1.9,2.5-3.7,5.1-5.5,7.8c-1.9,2.7-3.4,5.6-4.6,8.6
	c-0.8,2.3-1.6,4.5-2.2,6.9C1.2,72.4,0.8,74.9,0.7,77.4z M46.7,6.8c0.6-0.3,0.9-0.8,1.4-1.2c0.8-0.7,2.1-0.7,2.8,0.1
	c0.2,0.2,0.3,0.4,0.4,0.6c0.3,0.6,0.3,1.2,0.1,1.8c-0.3,1.2-0.7,2.4-1.4,3.5c-0.3,0.4-0.5,0.8-0.6,1.3c2.4-1.2,4.3-3.2,5.5-5.6
	c0.6-1.1,0.7-2.4,0.5-3.6c-0.5-2.2-2.3-4.3-5.1-2.7c-1.7,1-3,2.5-3.6,4.4C46.6,5.9,46.3,6.3,46.7,6.8z M46.7,15.2
	c0.4-1.6,1.5-2.6,2.3-3.9c0.4-0.6,0.7-1.2,1-1.8c0.2-0.4,0.2-0.8,0.2-1.2c0-0.5-0.1-1.1-0.7-1.2C49,7,48.4,7.1,48,7.6
	C47.4,8.2,47,9,46.8,9.9c-0.3,1.3-0.3,2.6-0.4,3.9C46.2,14.3,46.4,14.9,46.7,15.2L46.7,15.2z"/>
<path d="M77.6,41.1c0,0.1,0,0.2-0.1,0.3c-0.5,1-1,2.1-1.6,3.1c-0.1,0.2-0.2,0.3-0.4,0.3c-0.3-0.1-0.3-0.4-0.2-0.5
	c0.5-1.1,1.1-2.3,1.6-3.4c0.1-0.1,0.2-0.2,0.3-0.2C77.5,40.8,77.6,40.9,77.6,41.1z"/>
<path d="M70.8,58.9c-0.2-1.3,0.5-2.5,0.9-3.7c0.1-0.2,0.2-0.2,0.4-0.2c0,0,0,0,0.1,0c0.1,0.1,0.2,0.2,0.2,0.3
	c-0.4,1.2-0.8,2.4-1.2,3.6L70.8,58.9z"/>
<path d="M72.6,32.3c-0.6-0.8-1.4-1.5-2.2-2.1c-0.2-0.2-0.5-0.4-0.7-0.7c-0.1-0.1-0.1-0.3,0-0.3c0,0,0,0,0,0c0.1,0,0.2-0.1,0.2,0
	c0.9,0.8,2.2,1.3,2.8,2.5C72.8,31.8,72.8,32,72.6,32.3z"/>
<path d="M3.8,72c-0.4-0.3-0.2-0.6-0.1-0.9c0.2-1,0.5-1.9,0.9-2.8C4.6,68.1,4.7,68,4.9,68c0.1,0,0.3,0.1,0.2,0.3
	C4.6,69.5,4.5,70.9,3.8,72z"/>
<path d="M69.2,66.8c-0.4-1.3-0.1-2.7,0.7-3.8C70.2,64.3,69.9,65.7,69.2,66.8z"/>
<path d="M26.7,36.9c-0.1,0.6-0.6,0.7-0.8,1c-0.7,0.7-1.4,1.3-2.1,1.9c-0.1,0.1-0.3,0.2-0.5,0.1c-0.2-0.1-0.1-0.3,0-0.5
	c0.1-0.1,0.2-0.2,0.3-0.3c0.8-0.7,1.6-1.3,2.4-2C26.1,36.8,26.4,36.8,26.7,36.9z"/>
<path d="M4.9,85.7c-1.2-0.5-1.5-2-0.8-4C4.7,83.1,4.1,84.5,4.9,85.7z"/>
<path d="M3.3,78.3c-0.5-0.9-0.6-2-0.3-3c0-0.1,0.2-0.2,0.3-0.2c0.2,0,0.3,0.1,0.3,0.3c0,0,0,0,0,0.1C3.4,76.4,3.7,77.3,3.3,78.3z"/>
<path d="M12.3,54.5c0.2,0.2,0,0.4-0.1,0.6c-0.6,0.9-1.3,1.7-1.9,2.6c-0.1,0.1-0.2,0.2-0.3,0.2c-0.1,0-0.2-0.2-0.2-0.3
	C10.3,56.4,11.2,55.3,12.3,54.5z"/>
<path d="M63.2,25.3c0.4-0.1,0.6-0.2,0.7-0.2c1.1,0.5,2,1.1,2.8,2c0.1,0.1,0.1,0.2,0.1,0.4c0,0.1-0.2,0.2-0.3,0.1c0,0,0,0,0,0
	C65.5,26.8,64.4,26,63.2,25.3z"/>
<path d="M53.3,20.6c-1.5-0.3-2.9-0.8-4.1-1.6c0.7-0.2,0.7-0.3,2.2,0.5C52,19.9,52.8,20,53.3,20.6z"/>
<path d="M9.2,90.3c-0.9-0.4-1.7-1.2-2.3-2.1c-0.1-0.1-0.2-0.3,0.1-0.5c0.1-0.1,0.4-0.1,0.5,0c0,0,0,0,0,0C8,88.8,9,89.3,9.2,90.3z"
	/>
<path d="M74,50.6c-0.2-0.8-0.1-1.7,0.2-2.5c0-0.2,0.2-0.4,0.4-0.4c0.3,0,0.3,0.3,0.3,0.5C74.9,49.1,74.6,49.9,74,50.6z"/>
<path d="M8.1,61.1c-0.4,1-0.8,2-1.3,3c-0.1,0.1-0.2,0.2-0.3,0.2c-0.2,0-0.3-0.2-0.2-0.4c0.3-1.1,0.8-2.1,1.5-3L8.1,61.1z"/>
<path d="M36.6,86.3c0.7-1,1.6-1.9,2.6-2.6C38.8,84.9,37.8,85.9,36.6,86.3z"/>
<path d="M67.6,74.6c-0.2-1.2,0.4-2.1,0.6-3.2C68.9,72.4,68.7,73.4,67.6,74.6z"/>
<path d="M56.4,21.8c1.3,0.2,2.6,0.6,3.7,1.4C58.8,23.1,57.5,22.6,56.4,21.8z"/>
<path d="M65.6,80c0.2-1,0.8-1.9,1-2.9c0-0.2,0.2-0.3,0.4-0.2c0,0,0,0,0.1,0c0.2,0.1,0.3,0.3,0.2,0.5C67.1,78.4,66.5,79.3,65.6,80z"
	/>
<path d="M76.9,38c-0.4-0.8-1-1.6-1.7-2.1c-0.1-0.1-0.2-0.3-0.1-0.4c0,0,0,0,0,0c0.1-0.1,0.1-0.1,0.2-0.1c0.6,0.3,1.1,0.7,1.5,1.1
	C77.1,36.9,77.3,37.3,76.9,38z"/>
<path d="M55.3,81.4c-0.9,0.8-0.7,1.9-1.1,2.8C53.5,82.7,53.8,81.8,55.3,81.4z"/>
<path d="M43.6,78.9c-0.3,1.1-1,2-1.9,2.6C42.1,80.4,42.7,79.5,43.6,78.9z"/>
<path d="M14,51.2c0.1-0.9,0.6-1.8,1.4-2.2c0.1-0.1,0.3-0.1,0.4,0.1c0,0,0,0,0,0c0,0.1,0,0.3-0.1,0.4C15.3,50,14.6,50.6,14,51.2z"/>
<path d="M46.8,18.8c-0.4,1.2-1.4,1.7-2.3,2.5c-0.1,0.1-0.3,0.1-0.4-0.1c0,0,0,0,0,0c-0.1-0.1-0.2-0.3,0-0.4
	C45,20.2,45.9,19.5,46.8,18.8z"/>
<path d="M56.2,77.8C56,76.8,56.7,76,57,75.1C57.5,76.2,56.8,77,56.2,77.8z"/>
<path d="M52.2,71.6c-1,0.3-1.9,0.8-2.8,1.3C50.1,71.7,51,71.2,52.2,71.6z"/>
<path d="M26.6,91.7c0.9-0.6,1.9-0.8,2.9-0.8C28.7,91.6,27.7,91.8,26.6,91.7z"/>
</svg>
