<?xml version="1.0" encoding="utf-8"?>
<!-- Generator: Adobe Illustrator 23.0.3, SVG Export Plug-In . SVG Version: 6.00 Build 0)  -->
<svg version="1.1" id="Layer_1" xmlns="http://www.w3.org/2000/svg" xmlns:xlink="http://www.w3.org/1999/xlink" x="0px" y="0px"
	 viewBox="0 0 86.7 117.5" style="enable-background:new 0 0 86.7 117.5;" xml:space="preserve">
<title>Безымянный-36</title>
<path d="M86,15.2c0.7-1.5,0.9-3.3,0.3-5C86,9.6,85.8,8.8,85.7,8c-0.4-1.8-1.4-3.5-2.8-4.8C79.9-0.5,74.3-1.1,70.5,2
	c-0.2,0.2-0.4,0.3-0.5,0.5c-1.8,0.8-3.2,2.5-3.7,4.4c-0.5,1.4-0.9,2.8-1.3,4.2c-0.5,1.5-1.2,2.1-2.7,2.1c-1.9,0.1-3.8-0.1-5.7-0.5
	c-1-0.3-2.1-0.5-3.1-0.7C50,11.4,46.5,11,43,11c-1.4,0-2.7,0-4.1,0c-4.6-0.1-9.1,0.6-13.4,2.3c-0.6,0.4-1.4,0.2-1.8-0.4
	c0,0,0-0.1-0.1-0.1c-1.6-2.2-4-3.6-6.6-4c-0.8-0.1-1.6-0.1-2.4-0.2c-2.1-0.2-4.1,0.5-6.1,1C8.3,9.7,8.1,9.8,8,10
	c-2.3,2-3.5,4.8-3.3,7.8c0.1,1.4-0.5,2.8-1.6,3.6c-2.1,1.7-3.5,3.8-2.9,6.8c0.2,0.7,0.2,1.4,0.4,2.2c0.5,2.8,1,5.7,1.5,8.5
	c0.1,0.5,0.3,1.1-0.1,1.5c-0.9,0.7-0.7,1.5-0.6,2.4c0.3,1.7,0.5,3.5,0.7,5.2c0,0.5,0.2,0.9,0.5,1.2C3.4,49.9,4,51,4,52.2
	c0.8,4.7,2.1,9.3,2.7,14c0.2,1.6,0.9,3.2,0.6,4.7c-0.1,1.7-0.1,3.5,0.2,5.2C7.4,77.3,8,78.4,9,79.1c0.4,0.3,0.5,0.8,0.6,1.2
	c1.1,2.3,1.3,4.8,1.8,7.2c0,0.6,0.4,1.1,0.9,1.4c1.4,0.8,2.8,1.5,4.2,2.1c2.2,0.8,4.5,1,6.8,1.5c0.8,0.2,1.5,0.3,2.3,0.3
	c3.2,0,6.3,0.5,9.5,0.9c4.7,0.4,9.4,0.3,14-0.3c3.1-0.3,6.2-0.7,9.3-0.8c2-0.1,4-0.3,6-0.6c1-0.1,2-0.3,3-0.6c0.8-0.3,1.4-1,1.6-1.8
	c0.8-2.5,1.5-5,2-7.5c0.1-0.7,0.5-1.3,1.1-1.6C73,80,73.6,79,73.6,78c0.1-1,0.4-2,0.6-3c0.2-0.9,0.4-1.8-0.2-2.6
	c-0.3-0.3-0.1-0.8,0-1.1c1.6-5.9,2.8-11.9,4.6-17.7c0.2-1,0.7-1.9,1.5-2.6c0.4-0.3,0.6-0.8,0.7-1.3c0.2-1.7,0.4-3.4,0.6-5
	c0.1-0.6,0-1.1-0.3-1.6c-0.3-0.5-0.4-1.2-0.2-1.8c0.4-1.9,0.7-3.8,1.3-5.6c0.8-2.5,1.4-5,1.7-7.6c0.2-0.9-0.1-1.8-0.8-2.5
	c-0.7-0.6-0.9-1.7-0.3-2.4C83.8,20.4,84.9,17.9,86,15.2z M28.9,13.2c1.7-0.6,3.5-0.9,5.3-1.1c3.6-0.6,7.3-0.2,11.3-0.3
	c-0.4,0.6-0.6,1.3-0.5,2.1c0.3,5.1-0.2,10.2-0.4,15.2c-0.1,2.7,0,5.3-0.1,8c0,0.3-0.1,0.8,0.4,0.8c0.5,0,0.6-0.4,0.6-0.8
	c0-2,0-4.1,0-6.1c0.1-4.2,0.3-8.4,0.5-12.7c0.1-1.6,0.1-3.3,0.1-4.9c0-1.1,0.4-1.5,1.4-1.2c2.3,0.7,4.7,0.7,7,1.2
	c1.1,0.1,2.2,0.4,3.2,0.9c0.2,0.1,0.4,0.2,0.6,0.1c1.2-0.6,2.4,0.5,3.6,0.2c0.5-0.1,0.7,0.3,0.7,0.8c0,0.7,0,1.4-0.1,2
	c-1,6.5-1.9,13.1-2.9,19.6c-0.2,1.5-0.2,1.5-1.6,1.6c-2.5,0.3-4.9,0.4-7.4,0.4c-4.6,0.2-9.1-0.7-13.6-0.8c-1.2-0.2-2.4-0.5-3.6-0.9
	c-0.7-0.2-1.2-0.8-1.2-1.5c-0.4-2.6-0.8-5.2-1.3-7.8c-0.6-3.1-1.2-6.2-2-9.3c-0.5-1.6-0.2-3.4-0.8-5C28.1,13.4,28.6,13.3,28.9,13.2z
	 M27,14.2c1.1,7.2,3.3,14.1,4.1,21.5c-0.5,0.1-0.9-0.1-1.2-0.5c-1.2-1.5-2.6-2.8-3.1-4.8c-0.2-1.2-1.2-2-1.2-3.3
	c0-1.2,0.1-2.5,0.3-3.7c0.4-2.3,0.2-4.7-0.5-7C24.9,14.5,25,14.5,27,14.2z M4.4,23.2c0.5,0,0.7,0.3,0.7,0.7c0,0.6-0.7,1.7-1.2,1.7
	c-0.4-0.1-0.7-0.4-0.7-0.8C3.2,24.1,3.7,23.4,4.4,23.2z M1.8,31.3c-0.1-0.5-0.4-1.2,0.4-1.4C3.1,29.6,4,30,4.4,30.8
	c0.4,1.2,0.6,2.4,0.8,3.6c0.4,1.8,0.8,3.5,1.1,5.3c0.1,0.7,0.2,1.4,0.3,2.2c-2.3-0.2-3.2-0.9-3.5-2.9C2.7,36.4,2.2,33.8,1.8,31.3z
	 M7.5,64.6c-0.3-2.4-0.9-4.8-1.4-7.1c-0.3-1.7-0.6-3.3-0.9-5c-0.1-0.3,0-0.6,0.2-0.9c0.9,0,1.9,0.3,2.7,0.7c2.5,0.9,5.2,0.9,7.8,1.5
	c3.1,0.7,6.3,1.3,9.4,2c0.5,0.1,1,0.2,1.5,0.3c0.9,0.2,2.2,0,2.7,0.7c0.5,0.7,0.3,1.8,0.4,2.8c0.5,3.5,1,7,1.5,10.5
	c0.2,1.4,0.4,2.9,0.5,4.4c0,0.4,0.1,0.9,0.2,1.3c0.1,0.2,0.2,0.3,0.4,0.3c0.2,0,0.3-0.1,0.4-0.3c0.2-0.4,0.2-0.9,0.1-1.3
	c-0.5-3.7-1-7.4-1.5-11.1c-0.3-2-0.5-3.9-0.7-5.9c-0.1-0.8,0.4-0.8,1-0.8c2.1,0.2,4.1,0.4,6.2,0.7c2.9,0.4,5.8,0.7,8.7,0.8
	c0.3,0,0.7,0,1,0c0.4,0.1,0.6,0.3,0.6,0.8c-0.3,3.7-0.5,7.3-0.7,11c-0.1,1.7-0.4,3.4-0.6,5.1c0,0.5-0.3,1.2,0.4,1.3
	c0.6,0,0.6-0.7,0.6-1.2c-0.1-4,0.9-8,0.8-12c0-1.3,0.3-2.6,0.3-3.9c0-0.8,0.4-1,1.1-1.1c0.9-0.1,1.6,0.3,2.5,0.2
	c2.9-0.5,5.9-0.8,8.8-1.4c1.2-0.1,2.4-0.2,3.6-0.2c-0.8,3.5-1.5,6.7-2.2,10c-0.6,2.8-1.3,5.6-1.9,8.4c-0.3,1.5-0.5,1.6-1.9,1.9
	c-4,0.9-8.2,1.2-12.3,1.1c-4.6-0.3-9.1-0.3-13.7-1c-2.2-0.3-4.5-0.4-6.7-0.7c-3.8-0.4-7.6-1.3-11.1-2.7c-2-0.8-3.9-1.7-5.9-2.6
	c-0.5-0.2-0.8-0.6-0.9-1.1C8.2,68.3,7.8,66.5,7.5,64.6z M32.5,92.5c-3.6-0.4-7.3-0.6-10.9-1.3c-2.6-0.5-5.1-1.3-7.5-2.6
	c-0.9-0.4-1.5-1.2-1.7-2.1c-0.3-1.8-0.7-3.5-1.1-5.3c1.2-0.4,1.9,0.5,2.8,0.5c0.6,0.1,1.1,0.3,1.6,0.6c0.6,0.3,0.1,0.9,0.2,1.4
	c0.3,1.8,1,3.6,1.4,5.4c0,0.2,0.2,0.4,0.5,0.4c0.2,0,0.4-0.2,0.3-0.5c0,0,0,0,0,0c-0.1-0.6-0.2-1.1-0.3-1.7
	c-0.4-1.2-0.7-2.5-0.8-3.8c-0.2-1.2-0.1-1.2,1.1-1c1.7,0.3,3.4,0.6,5.2,0.9c3,0.4,6,0.8,9.1,1.2c0.8,0.1,1,0.4,1.1,1.1
	c0.1,1.7,0.4,3.5,0.6,5.2C34.1,92.4,33.9,92.7,32.5,92.5z M57.5,91.8c-4.1,0.3-8.2,0.8-12.3,1.1c-1.4,0.1-2.8,0-3.7,0
	c-1.9,0.2-3.8,0.2-5.6,0c-0.5-0.1-0.9-0.1-0.9-0.8c-0.2-2.1-0.5-4.1-0.6-6.2c-0.1-1.1,0-1.2,1.1-1.1c1.7,0,3.5,0.1,5.2,0.4
	c2.7,0.3,5.4,0.4,8.1,0.1c2.7-0.1,5.4-0.4,8.1-0.6c0.6,0,1.2-0.2,1.8-0.2c0.7-0.1,1.1,0.2,1,0.9c-0.3,1.8-0.6,3.5-0.9,5.3
	C58.7,91.4,58.1,91.9,57.5,91.8z M69.7,83.2c-0.4,2.2-1,4.3-1.7,6.3c-0.3,0.6-0.9,1-1.6,1.1c-1.9,0.4-3.9,0.8-5.8,1
	c-0.7,0.1-1.1-0.2-0.9-1c0.4-1.9,0.8-3.9,1.2-5.8c0.1-0.5,0.5-0.8,0.9-0.8c2.1-0.2,4.2-0.8,6.2-1.5c0.3-0.1,0.5-0.1,0.8-0.2
	C69.3,82.4,69.8,82.5,69.7,83.2z M73,75.1c0,0.2,0,0.5-0.1,0.7c-0.9,3.5-0.3,3.9-4.7,4.7c-2.7,0.5-5.2,1.3-7.9,1.8
	c-3.1,0.6-6.3,0.9-9.4,1.1c-5.9,0.4-11.7,0.3-17.6-0.4c-5.1-0.5-10.1-1.2-15.1-2.1c-2.7-0.6-5.3-1.5-7.9-2.6c-1-0.4-1.7-1.3-1.7-2.3
	c-0.1-1-0.1-2-0.2-3.1c0.8-0.2,1.6-0.1,2.3,0.3c2,1.1,4.2,1.9,6.4,2.5c3.4,1.1,6.9,1.7,10.4,1.9c3.5,0.2,7.1,0.6,10.6,0.8
	c2.5,0.1,4.9,0.3,7.4,0.3c1.6,0,3.2,0.2,4.9,0.1c5.5-0.3,10.9-1.2,16.2-2.6c1.2-0.4,2.5-0.9,3.6-1.5c0.6-0.3,1.2-0.6,1.9-0.7
	C73.1,74,73.1,74,73,75.1z M77.1,54.3c-1.4,5.7-2.9,11.5-4.3,17.2c-0.2,0.8-0.8,1.5-1.5,1.8c-2.5,1.4-5.1,2.4-7.8,3
	c-0.2,0-0.3,0.1-0.5,0.2c-1,0.2-1.2,0-1.1-1c0.2-1.3,0.4-2.6,0.7-3.8c1.2-4.6,2.3-9.3,3.3-14c0.1-0.7,0.5-1.3,1.2-1.4
	c3.3-0.8,6.6-1.6,10-2.7C77.2,53.8,77.2,54,77.1,54.3z M79.5,49.7c-0.2,1.1-1.2,1.6-2.2,2c-3.9,1.5-7.9,2.6-12.1,3.2
	c-2.6,0.4-5.3,0.7-7.9,1c-3.1,0.4-6.3,0.4-9.5,0.6c-1.5,0-2.9,0.1-4.4,0c-4.6-0.3-9.2-0.9-13.7-1.7c-4.3-0.8-8.6-1.4-12.8-2.2
	c-3.8-0.7-7.6-1.7-11.3-2.9c-1.4-0.5-2.4-1.2-2.5-2.8c-0.1-1.1-0.4-2.2-0.6-3.3c-0.2-1.2,0.3-1.6,1.4-1.1c0.2,0.1,0.4,0.2,0.6,0.3
	c3.3,1.7,6.7,3,10.3,3.7c3.9,0.9,7.7,2.1,11.6,2.9c2.8,0.7,5.6,1.1,8.5,1.2c0.2,0,0.5,0,0.7,0c3.8,1,7.8,0.4,11.6,0.7
	c4.8,0.2,9.7-0.3,14.4-1.5c2.3-0.5,4.6-0.9,7-1.4c2.7-0.4,5.3-1.2,7.8-2.3c0.9-0.4,1.7-1,2.4-1.6C79.6,43.9,80,44,80,45
	C80,46.6,79.8,48.2,79.5,49.7L79.5,49.7z M81.7,33c-0.7,3-1.4,5.9-2.1,8.9c-0.1,0.6-0.5,1.2-1,1.5c-0.4,0.2-0.8,0.5-1.1,0.8
	c-1.9,1.5-4.2,2.5-6.6,2.8c-1.1,0.2-2.2,0.7-3.4,0.4c0.3-2.6,0.9-5.1,1.3-7.7c-0.9,0.1-1,0.5-1.1,0.9c-0.4,2.2-0.7,4.3-1,6.5
	c-0.1,0.6-0.1,0.9-0.6,1c-4.4,0.9-8.8,1.9-13.3,2.5c-2.4,0.3-4.9,0-7.3,0c-4.9,0.1-9.7-0.4-14.4-1.4c-5.2-1.1-10.4-2.4-15.6-3.6
	c-2.4-0.5-4.7-1.3-6.9-2.3c-0.6-0.3-1.3-0.6-0.9-1.6c0.1-0.5,0-1-0.2-1.5c-0.7-3.3-1.4-6.6-2-9.9c-0.2-0.8-0.2-1.6,0.2-2.3
	c1.2-1.9,1-3.9,0.8-5.9c-0.4-2.2-0.4-4.4,0-6.5c0.2-0.8,0.6-1.5,1.2-2.2c0.9-1.3,1.7-2.8,3.5-3.1c2.6-0.5,5.2-0.9,7.8-0.1
	c1.7,0.5,2.4,2,3.4,3.2c1.2,1.5,2,3.3,2.4,5.2c0.3,0.8,0.4,1.7,0.3,2.5c-0.3,2.2-0.1,4.5-0.4,6.8c-0.1,1.2,0.2,2.5,0.8,3.6
	c0.8,2.2,1.3,4.5,1.5,6.9c0.3,2.7,0.7,5.4,1.1,8.1c0,0.2,0,0.3,0.1,0.5c0.1,0.3,0.2,0.5,0.6,0.5c0.3,0,0.4-0.3,0.4-0.5
	c0.1-0.7,0-1.4-0.1-2c-0.3-1.8-0.6-3.6-0.9-5.3c-0.1-0.3-0.1-0.6-0.1-0.8c0-0.8,0.3-1,1.1-0.7c0.2,0.1,0.3,0.1,0.5,0.2
	c2.9,1.8,6.2,2.3,9.5,2.7c2.6,0.4,5.3,0.5,7.9,0.3c1.1-0.1,1.4,0.2,1.4,1.4c0,1.4-0.5,2.7-0.4,4c0,0.6,0,1.2,0,1.9
	c0,0.3-0.1,0.6,0.3,0.7c0.4,0,0.7-0.2,0.7-0.6c0.1-0.5,0-1-0.1-1.5c-0.3-1.8,0.4-3.5,0.6-5.2c0.1-0.6,0.6-0.4,0.9-0.5
	c1.5-0.1,3-0.3,4.6-0.3c5.5-0.1,10.9-1,16.1-2.7c2.1-0.7,4.2-1.8,6-3c1.5-1,3.1-2,4.6-3.1C81.8,32.2,81.8,32.6,81.7,33z M81.5,26.6
	c0.2,1-0.2,2.1-0.9,2.8C80.3,28.3,80.4,27.8,81.5,26.6z M78.9,29.3c-0.6,2.3-2.3,4.2-4.5,5c-3.5,1.4-6.8,2.9-10.5,3.6
	c-0.6,0.1-1.2,0.2-1.8,0.3c-1.3,0.1-1.3,0.1-1.2-1.3c0.1-1.4,0.2-2.8,0.5-4.2c0.9-5.4,1.4-10.9,2.5-16.2c0-0.7,0.3-1.5,0.7-2
	c1-1.1,1.6-2.6,1.7-4.1c0.2-2.2,1.1-4.3,2.4-6l0,0c0.2,0.1,0.4,0.1,0.5,0c0,0,0,0,0,0c2.7-3.7,7.9-4.6,11.6-2
	c0.3,0.2,0.5,0.4,0.8,0.6c0,0.4,0.3,0.7,0.6,1c2.1,2,3.3,4.8,3,7.7c0,2.1-0.5,4.3-1.5,6.2C81.9,21.5,80.2,25.4,78.9,29.3z"/>
<path d="M79.9,10.8c0,2.4-2.8,4.2-4.6,4.2c-1.5,0-3.7-2.2-3.7-3.8c0-2.3,2-5,3.8-5C77.9,6.3,79.9,8.3,79.9,10.8z M78.9,10.7
	c0-0.8-0.2-1.5-0.6-2.2C78,8,77.4,7.7,76.8,7.7c-1.3,0.2-2.3,1-2.8,2.2c-0.4,1-0.2,2.2,0.4,3.1c0.4,0.7,1.3,1,2.1,0.7
	C77.5,13.4,79,11.9,78.9,10.7z"/>
<path d="M82.9,12.5c0.1,1.2-0.1,2.4-0.5,3.5c-0.9,3.1-2.1,6-3.3,9c-0.9,2.2-1.5,4.6-2.3,6.9c-0.1,0.3,0,0.7-0.7,0.9
	c0.3-1.7,0.8-3.4,1.4-5.1c0.5-1.7,1.3-3.4,1.9-5.1c0.6-1.6,1.1-3.3,1.7-5C81.6,16,81.8,14.2,82.9,12.5z"/>
<path d="M75.7,27.3c0.2,1.4,0,2.8-0.6,4C74.8,29.9,75,28.5,75.7,27.3z"/>
<path d="M14,24.7c-1.7-0.3-3.2-1.4-4-3c-0.5-1.7,0-3.4,1.3-4.6c0.5-0.4,1-0.7,1.6-1c1.8-1,3.3-0.3,4.7,1c1.2,1.1,1.2,2.5,0.7,3.9
	C17.8,23,15.8,24.7,14,24.7z M17.5,20.1c0.1-1.4-1-2.5-2.3-2.6c-0.4,0-0.8,0.1-1.1,0.2c-1.7,0.8-2.2,3.8-0.8,5.1
	c0.4,0.4,1,0.6,1.5,0.5C16.3,23,17.4,21.6,17.5,20.1z"/>
<path d="M6.6,29c0.4,0,0.5,0.1,0.5,0.3c0.6,4.1,1.2,8.1,2,12.2c0.1,0.3-0.1,0.5-0.3,0.7c-0.8-0.9-0.2-2.1-0.5-3.1
	c-0.3-1.1-0.5-2.2-0.7-3.3c-0.2-1.1-0.4-2.2-0.6-3.3C6.9,31.2,6.1,30.1,6.6,29z"/>
<path d="M10.5,41.9c-1-2.5-1.4-5.2-1.3-7.8c0.4-0.2,0.5,0.1,0.5,0.2C9.9,36.9,10.3,39.4,10.5,41.9z"/>
<path d="M51.6,42.4c0.5,1,0.3,4.9-0.4,6.2C50.9,46.6,51.1,44.5,51.6,42.4z"/>
<path d="M64.9,40.9c0.1,1.7-0.2,3.4-0.8,5C63.7,44.1,63.9,42,64.9,40.9z"/>
<path d="M14,71.7c0,0.4-0.1,0.7-0.4,0.8c-0.3,0.1-0.5-0.2-0.6-0.5c-0.1-0.2-0.1-0.3-0.1-0.5c-0.7-4.8-2.3-9.4-3.1-14.2
	c-0.2-1-0.4-2-0.5-3c0-0.3-0.1-0.7,0.3-0.8c0.4-0.1,0.6,0.2,0.7,0.6c0.2,1.2,0.4,2.3,0.6,3.5c0.5,3.4,1.5,6.7,2.3,10.1
	C13.4,69.1,13.7,70.5,14,71.7z"/>
<path d="M51.3,59.6c-0.4,4.9-0.8,9.8-1.2,14.7c0,0.4-0.1,0.8-0.6,0.9c-0.3-1.2,0.9-14.5,1.3-15.6L51.3,59.6z"/>
<path d="M14.9,72.6c0.3-4.7-1.5-9-1.9-13.6c-0.1-0.3,0-0.6,0.2-0.8c0.2,0,0.4,0,0.4,0.2c0.1,2.7,1.2,5.3,1.6,8
	c0.3,1.7,0.5,3.4,0.5,5.1C15.7,71.8,15.8,72.4,14.9,72.6z"/>
<path d="M47.3,35.9c-0.4-2.6-0.4-5.3,0-7.9c0.4-3.6,0.5-7.2,0.3-10.8c-0.1-0.8,0-1.7,0.3-2.5c0.1-0.2,0.2-0.4,0.4-0.4
	c0.3,0,0.4,0.3,0.4,0.6c-0.5,2.9,0,5.7-0.4,8.6c-0.4,3-0.5,6.1-0.7,9.1c-0.1,0.8-0.1,1.7,0.1,2.5C47.9,35.3,47.9,35.6,47.3,35.9z"/>
<path d="M51.5,15.4c0.3,1.5-0.3,2.6-0.2,4.1C50.4,18.3,50.5,16.6,51.5,15.4z"/>
<path d="M65.1,74c-0.4-0.4-0.6-1-0.3-1.6c0.6-2.9,1.3-5.8,2-8.7c0.4-1.6,0.6-3.3,0.8-5c0-0.7,0.2-1.4,0.7-1.9c0.5,0.4,0.4,1,0.3,1.4
	C67.5,63.4,66.4,68.6,65.1,74z"/>
<path d="M70.5,57.9c0.2,1.3-0.1,2.6-0.8,3.6C69.4,60.2,69.7,58.9,70.5,57.9z"/>
<path d="M47,92.2c0-2-0.3-4,0.3-6C48.1,87.3,48,90.8,47,92.2z"/>
<path d="M19.7,83.5c1.2,1.9,1,3.9,1,6c-1-0.8-0.7-1.9-0.8-2.9C19.8,85.6,19.3,84.6,19.7,83.5z"/>
<path d="M22.4,84.5c0.4,1.8,0.5,3.6,0.3,5.4C21.8,88.9,21.6,86.1,22.4,84.5z"/>
</svg>
