<?xml version="1.0" encoding="utf-8"?>
<!-- Generator: Adobe Illustrator 23.0.3, SVG Export Plug-In . SVG Version: 6.00 Build 0)  -->
<svg version="1.1" id="Layer_1" xmlns="http://www.w3.org/2000/svg" xmlns:xlink="http://www.w3.org/1999/xlink" x="0px" y="0px"
	 viewBox="0 0 84.6 115.5" style="enable-background:new 0 0 84.6 115.5;" xml:space="preserve">
<title>Безымянный-1</title>
<path d="M25.7,22.4c0.8-1.3,1.9-2.3,3.1-3.1c0.4-0.2,0.6-0.6,0.7-1c0.7-2.5,2.7-3.9,4.6-5.4c1.6-1.2,3.5-2.1,5.5-2.5
	c0.3-0.1,0.6-0.2,0.9-0.2c1.4,0.2,2-0.5,2.6-1.7c1.3-2.7,3.6-4.8,6.5-5.8c2.5-1,5.2-1.3,7.8-0.7c0.4,0.1,0.7,0.1,1.1,0.2
	c1,0,1.7,0.4,1.7,1.7c1.6-1.4,3.5-2.5,5.4-3.3c1.7-0.6,3.4-0.8,5.2-0.7c0.9,0,0.8,0.6,0.7,1.2c-0.1,1.1-0.1,1.1,0.9,1.1
	c1.2,0,2.5-0.1,3.7,0c0.9,0,1.6,0.6,1.9,1.4c0.8,1.6,1,3.4,0.5,5.1c1.3-0.7,2.1,0.1,2.8,0.7c0.7,0.6,1.3,1.3,1.7,2.2
	c0.9,2.1,0.8,4.5-0.1,6.5c-0.2,0.5-0.5,0.9-0.7,1.4c-0.3,0.5-0.5,1-0.7,1.6c-0.1,0.7,0.8,0.7,1.1,1.2c1.6,2.2,2.5,4.4,1.6,7.1
	c-1,2.7-2.9,5.1-5.4,6.6c-1.1,0.8-1.3,0.8-0.5,2.2c1.6,2.9,1.3,5.4-0.9,8c-0.8,1-1.7,1.8-2.7,2.6c-1.8,1.2-3.4,2.7-4.6,4.5
	c-0.3,0.5-0.8,0.8-1.3,0.8c-0.7,0.1-1.3,0.7-1.5,1.4c-1.5,3.6-4.1,6.7-7.6,8.6c-1.6,1.2-3.5,1.9-5.4,2.1c-0.6,0-0.8,0.4-1,0.8
	c-0.5,1.1-1.5,1.8-2.6,2c-0.4,0-0.5,0.3-0.7,0.6c-1.4,2.1-3.7,3.3-6.2,3.4c-1.5,0-3,0.1-4.5,0.3c-0.3,0.1-0.5,0-0.8-0.1
	c-1.1-0.5-2.4-0.2-3,0.9c-1,1.1-2.4,1.7-3.9,1.6c-1.5,0.1-3-0.1-4.5-0.6c-1.9-0.5-3.5-1.9-4.3-3.8c-0.2-0.4-0.4-0.7-0.6-1.1
	c-0.6-0.1-0.8,0.3-1.1,0.7c-1.5,2.3-3,4.6-4.3,7c-0.9,1.7-2.4,3.4-1.9,5.6c0,0.2-0.1,0.5-0.2,0.6c-1,0.3-1.3,1.4-2.3,1.7
	c-1,0.3-1.3,1.5-1.9,2.4c-0.6,0.8-1,1.7-1.5,2.6c-0.5,1.2-1.9,1.7-3,1.2c-0.2-0.1-0.4-0.2-0.5-0.3c-0.5-0.3-0.9-0.7-1.3-1.1
	c-1.1-1.4-2.3-2.7-3.6-3.9c-0.9-0.9-1-1.2-0.2-2.2c0.8-1.1,1.7-2.1,2.6-3.1c0.6-0.7,1.2-1.3,1.8-2c1.9-2.1,3.2-4.6,5.3-6.4
	c0.4-0.4,0.7-1,1.4-0.6c0.4,0.2,0.5-0.2,0.7-0.4c1.4-1.5,2.7-3,3.9-4.6c0.3-0.5,0.4-0.8-0.1-1.2c-0.8-0.5-1.2-1.5-1-2.5
	c0.1-0.6-0.1-1.1-0.5-1.6c-0.6-0.8-0.8-1.7-0.6-2.7c0.2-0.7-0.1-1.4-0.6-1.8c-3-3.3-3.3-7.2-2.4-11.2c0.3-1.5,1.2-2.8,2.5-3.7
	c0.5-0.3,0.8-0.8,0.7-1.4c-0.2-1.6,0.7-3.2,2.2-3.7c0.6-0.2,0.6-0.6,0.5-1.1c-0.8-5,0.9-10,4.6-13.5c0.8-0.8,1.5-1.7,2.2-2.6
	c0.2-0.3,0.5-0.6,0.9-0.5c0.4,0.1,0.5,0.5,0.6,0.8C25.3,21.4,25.5,22,25.7,22.4z M35.4,70.5c1.3,1.5,3.2,2.2,5.2,1.9
	c1-0.1,2.1-0.2,3.1-0.1c2.1,0.1,4.1-0.9,5.3-2.6c0.7-0.9,1.2-1.8,2.5-1.9c0.3-0.1,0.5-0.2,0.6-0.4c0.6-0.6,0.6-0.8-0.2-1.3
	c-0.2-0.1-0.5-0.3-0.4-0.6c0.1-0.4,0.5-0.2,0.8-0.2c1.8,0.3,3.6,0,5.2-0.7c1.6-0.8,3.1-1.8,4.6-3c2.3-1.9,4.1-4.4,5-7.2
	c0.2-0.5,0.4-0.9,1-1c1.5-0.3,2.7-1.4,3-2.8c0.1-0.4,0.3-0.8,0.7-0.9c2.1-1,4-2.4,5.4-4.3c2-2.1,2-5.5-0.2-7.5
	c-0.1-0.1-0.2-0.2-0.3-0.3c-0.4-0.3-0.4-0.6-0.1-0.9c0.4-0.4,0.9-0.7,1.3-1.1c1.4-0.9,2.6-1.9,3.7-3.1c2.3-2.4,2.7-6,1-8.8
	c-0.8-1.4-1.1-1.5-2.7-1.1c-0.2,0-0.3,0-0.4-0.2c0-0.1,0-0.2,0-0.3c1.8-1.7,2.9-3.9,3.3-6.2c0.5-2.2-0.3-4.5-2-5.9
	c-0.4-0.5-1.2-0.6-1.7-0.2c-0.5,0.3-1.1,0.6-1.2,1.3c1.4,0.4,1.4,0.4,1.4,1.8c0,0.3-0.2,0.7,0.1,1c1.1-0.2,1.3-0.1,1.5,0.8
	c0.1,0.4,0.1,0.8,0,1.2c-0.3,1.7-1.2,3.3-2.5,4.6c-0.2,0.2-0.4,0.6-1,0.4c1-2,2.9-3.6,2.6-6.1c-0.6,0.1-1,0.5-1.1,1.1
	c-0.3,1.8-1.4,3.3-2.4,4.9c-0.2,0.3-0.4,0.6-1,0.3c0.6-1.4,1.6-2.5,2.1-3.9c0.4-1.5,0.6-3.2,0.4-4.8c-2.3,1.5-4.1,3.6-5.3,6.1
	c-0.1,0.3-0.1,0.7-0.5,0.6c-0.4-0.1-0.2-0.5-0.1-0.8c0.3-0.9,0.8-1.7,1.4-2.4c1.2-1.4,2.4-2.7,3.8-3.9c-1.1-0.6-1.2-0.6-0.4-1.4
	c0.5-0.5,0.8-1.2,0.9-2c0.2-1.4,0-2.9-0.6-4.3c-0.3-0.9-1.1-1.4-2-1.3c-1.3,0.2-2.6,0.2-3.9,0.1c-0.5,0-1,0.3-1.3,0.7
	c-0.3,0.5-0.7,0.9-1.1,1.3c-0.3,0.4-0.7,0.4-1.1,0.2c0,0,0,0,0,0c0.6-0.8,1.3-1.6,1.8-2.4c0.4-0.5,1.1-1.1,0.6-1.7
	C69.9,0.8,69,0.9,68.3,1c-3.7,0.5-6.8,2.1-8.6,5.7c-0.1,0.2-0.2,0.4-0.3,0.5c-0.2,0.2-0.4,0.4-0.7,0.2c-0.2-0.1-0.3-0.4-0.2-0.7
	c0.2-0.4,0.4-0.7,0.6-1.1c0.6-1.4,0.1-2.3-1.4-2.5c-0.9-0.2-1.8-0.3-2.8-0.3c-1.7-0.1-3.4,0.2-5,0.9c-3,1.3-5.3,3.8-6.5,6.8
	c-0.2,0.8-0.8,1.5-1.5,1.9c-0.2-0.9-0.6-1.3-1.5-1.1c-3.7,0.8-6.9,2.8-9.1,5.9c-0.8,0.9-1.3,2.1-1.1,3.3c0.4,2.5,0,5.1-1.2,7.4
	c-0.1,0.2-0.2,0.6-0.7,0.4c0-0.5,0.3-0.9,0.4-1.3c0.6-1.7,0.8-3.5,0.8-5.4c-0.1-1-0.6-1.2-1.3-0.6c-1.3,1.2-2.2,2.5-1.9,4.4
	c0.1,1.2,0.1,2.5-0.2,3.7c-0.5,1.6-1.1,3.2-2,4.7c-0.8,1.9-1.9,3.6-3.2,5.1c-0.2,0.2-0.4,0.4-0.6,0.3c-0.4-0.2-0.2-0.5,0-0.8
	c0-0.1,0.1-0.2,0.2-0.2c1.3-1.2,1.9-2.8,2.8-4.3c2.1-3.2,2.7-7.2,1.5-10.9c-0.1-0.4-0.1-0.9-0.6-1.3c-5.3,4.9-8.1,10.6-5.5,17.8
	c-0.3,0.2-0.7,0-0.9-0.3c-0.7-0.8-1-0.8-1.7-0.2c-0.4,0.4-0.7,0.9-0.8,1.5c-0.1,0.5-0.1,1,0,1.6c0.1,0.7,0,1.3-0.8,1.6
	c-0.6,0.3-1.1,0.8-1.5,1.4c-0.8,1.1-1.2,2.4-1.2,3.8c-0.1,3.1,0.4,6,2.6,8.4c0.6,0.6,0.8,1.4,0.7,2.2c-0.2,0.8,0,1.7,0.4,2.4
	c0.4,0.6,0.5,1.3,0.4,1.9c-0.1,0.7,0,1.4,0.5,1.9c0.8,0.7,1.8,1.1,2.8,1.1c0.9,0,1.7-0.4,2-1.2c0.2-0.3,0.4-0.5,0.6-0.7
	c0.9-1,1.9-2,2.9-2.9c0.3-0.2,0.6-0.6,0.9-0.2c0.3,0.4-0.2,0.6-0.5,0.8c-0.6,0.5-1.2,1.1-1.8,1.7c-2.2,2.1-3.7,4.7-5.5,7.1
	c-1.2,1.5-2.3,3.1-3.4,4.7c-0.2,0.3-0.3,0.6,0,0.8c0.4,0.3,0.5-0.1,0.7-0.4c1.2-1.8,2.4-3.6,3.7-5.4c0.8-1.3,1.8-2.6,2.8-3.8
	c1.6-1.5,3.4-2.8,5.3-3.8c0.3-0.1,0.6-0.3,0.8,0.1c-0.2,0.3-0.6,0.6-0.9,0.7c-1.6,0.9-3.1,2-4.4,3.2c-0.6,0.5-0.7,1.3-0.2,1.9
	c0.5,0.8,0.8-0.5,1.3-0.2c0,1.5,0.8,2.9,1.9,3.7c3.8-4.6,8.4-7.1,14.2-7.2c0.5,0.4-0.2,0.8,0.2,1.3c1.7,0.1,3.4,0.2,5.2,0.3
	c0.6,0,0.8,0.3,0.5,0.8c-1.4,2.2-3.7,3.1-6.1,3.8c-0.1,0-0.2,0-0.3,0c-0.2,0-0.4-0.2-0.4-0.4c0-0.2,0.1-0.3,0.4-0.4
	c1.2-0.2,2.3-0.7,3.3-1.4c0.6-0.3,1.2-0.7,1.4-1.4C40.3,67.1,37.8,68.4,35.4,70.5z M9.4,83.7c-1-1-2-2-3-3c-0.3-0.4-0.8-0.5-1.2-0.2
	C5.1,80.6,5,80.6,5,80.7C3.7,82,2.4,83.5,1.3,85c-0.6,0.7-0.4,1.1,0.4,1.8c0.8,0.6,1-0.1,1.3-0.4c0.5-0.5,1-1.1,1.5-1.6
	c0.4-0.4,0.8-0.8,1.3-1c0.1,0.6-0.2,0.8-0.5,1c-0.7,0.7-1.4,1.4-2.1,2.1c-0.6,0.6-0.5,1,0,1.6c0.6,0.7,1.2,1.4,1.8,2.1
	c0.8,0.9,1,0.9,1.5-0.2c0.5-0.9,1-1.8,1.5-2.7C8.4,87,9,86.7,9.6,86.9l-3,4.8c0.8,0,1.5-0.5,1.8-1.3c0.7-1.1,1.4-2.2,2.2-3.2
	c0.2-0.3,0.4-0.6,0.6-0.9c0.2-0.3,0.1-0.8-0.2-1.1c0,0,0,0,0,0c-0.3-0.2-0.5-0.6-0.9-0.7c-1.5,1.8-2.8,3.8-4.8,5.2
	C6.3,87.5,8,85.8,9.4,83.7z M36.2,72.5c-0.2-0.2-0.4-0.4-0.6-0.5c-1-0.9-1-0.9-2-0.2c-1.6,1.1-3.5,1.3-5.3,1.7
	c-0.2,0.1-0.4,0-0.5-0.2c-0.1-0.2,0-0.4,0.2-0.5c0.4-0.3,0.9-0.5,1.5-0.5c1.3,0,2.5-0.4,3.5-1.2c1.3-0.8,2.5-1.7,3.7-2.6
	c0.6-0.4,1-0.9,1.4-1.5c-0.2-0.3-0.5-0.3-0.8-0.2c-4.1,0.6-7.8,2.6-10.4,5.7c-1,1.1-0.9,1.5,0.5,2C30.6,75.4,33.7,75.6,36.2,72.5z
	 M7.5,78.3c-0.5,0-0.9,0.5-0.9,1c0,0.3,0.2,0.6,0.4,0.7c1.5,1.4,3,2.9,4.5,4.3c0.3,0.2,0.6,0.4,0.9,0.6c0.2,0.1,0.5,0.1,0.7-0.1
	c0.2-0.2,0.2-0.5,0-0.7c0,0,0,0,0,0c-0.1-0.2-0.2-0.3-0.4-0.5c-1.3-1.3-2.5-2.7-3.6-4.1c-0.3-0.4-0.6-0.7-1-1
	C8,78.3,7.8,78.1,7.5,78.3L7.5,78.3z M13.9,83.4c0.3-1.2,0.3-1.2-0.3-1.9c-0.4-0.5-0.7-1-1-1.6c-0.8-1.6-2.1-2.9-3-4.5
	c-1.3,1.3-1.4,1.7-0.3,2.8c0.6,0.6,1.2,1.3,1.7,2C11.8,81.4,12.8,82.4,13.9,83.4L13.9,83.4z M15.7,78.7c0.9-1.5,1.9-3,2.7-4.5
	c1-1.4,1.9-2.9,2.6-4.5c-0.3,0-0.3,0-0.4,0.1c-2.1,2.5-3.9,5.1-5.5,7.9C14.8,78.1,15.2,78.4,15.7,78.7L15.7,78.7z M11.2,73.7
	c-0.8,0.4-1,0.9-0.4,1.8c1,1.4,2,2.9,2.9,4.4c0.2,0.3,0.4,0.9,0.9,0.6c0.4-0.3,0.4-0.8,0-1.3c-0.1-0.1-0.2-0.3-0.2-0.4
	c-1-1.7-2.3-3.1-2.9-5C11.5,73.8,11.3,73.7,11.2,73.7z M17.9,67.5c-0.3-0.1-0.7,0.1-0.8,0.4c-0.7,0.9-1.4,1.8-2.2,2.6
	c-0.7,0.8-1.4,1.5-2.1,2.3c-0.2,0.3-0.8,0.7-0.3,1c0.4,0.3,0.6-0.3,0.8-0.5c1-1.2,2-2.5,3-3.8C17,69,17.6,68.3,17.9,67.5z
	 M17.1,70.5c-1.6,1.2-2.5,3-3.9,4.4c-0.2,0.2-0.3,0.4,0,0.6c0.2,0.1,0.4,0,0.5-0.2C14.9,73.7,16,72.1,17.1,70.5z"/>
<path d="M55.3,36.4c1.2,0.4,2.2,0.8,3.3,1.2c0.8,0.3,0.9,0.7,0.2,1.2c0,0-0.1,0.1-0.1,0.1c-2.8,1.6-5.7,2.7-9.1,1.8
	c-0.2,0-0.4-0.1-0.6-0.2c-0.4-0.3-1.4-0.2-1-1c0.2-0.5,0.8,0.1,1.2,0.3c0.9,0.3,1.9,0.5,2.9,0.5c1.9,0,3.8-0.6,5.4-1.8
	c0.1-0.4-0.3-0.5-0.5-0.6c-1.9-0.9-4-0.9-5.9-0.2c-1.1,0.6-2.2,1.1-3.4,1.5c-0.3,0.1-0.6,0.4-0.8,0.7c-1.2,1.1-2.3,2.3-3.4,3.4
	c-0.2,0.2-0.4,0.4-0.7,0.3c-0.3-0.4,0.1-0.6,0.3-0.8c1.2-1.6,2.6-3.1,4.2-4.3c0.4-0.3,0.7-0.8,0.6-1.3c-0.3-1.9,0-3.8,0.6-5.5
	c0.9-1.9,2.1-3.6,3.5-5.1c0.5-0.6,0.9-0.5,1.2,0.2c0.3,0.6,0.4,1.3,0.6,2c0.6,0.1,0.8-0.4,1-0.8c2.7-3.1,6.1-5.6,9.9-7.1
	c0.7-0.3,1.5-0.5,2.2-0.7c0.7-0.2,0.9,0,0.8,0.8c-0.2,1-0.5,1.9-0.9,2.8c-2.2,4.9-5.8,8.9-10.3,11.8c-0.3,0.2-0.5,0.3-0.8,0.5
	C55.5,36.1,55.4,36.2,55.3,36.4z M50.9,36.5c2.4-0.1,4.6-1.1,6.5-2.6c0.9-0.7,1.7-1.5,2.6-2.2c3.1-2.5,4.8-5.9,6.4-9.4
	c0.2-0.4,0.4-0.8,0.1-1.2c-0.3-0.3-0.7,0-1,0.1c-0.1,0-0.3,0.1-0.4,0.2c-2.7,1.1-5.2,2.7-7.3,4.7c-1.9,1.7-3.8,3.5-4.4,6.1
	c0,0.2-0.1,0.4-0.3,0.5C51.9,33.7,51.6,35.1,50.9,36.5z M48.7,37.1c0.5-0.3,1-0.7,1.3-1.1c1-1.1,1.2-2.6,2.1-3.8
	c1-1.3,0.6-2.8,0.5-4.2c0-0.2-0.1-0.4-0.3-0.5c-0.3-0.1-0.5,0.1-0.6,0.4c-0.7,0.9-1.4,1.9-2,2.9C48.5,32.7,48.2,34.9,48.7,37.1z"/>
<path d="M31,36.3c1.5-3,3.9-4.8,6.1-6.8c0.3-0.3,0.6-0.5,1-0.7c1-0.6,1.3-0.4,1.4,0.8c0.4,4.7-1.6,8.5-5,11.6c-1,0.9-2,1.7-3,2.5
	c-0.3,0.2-0.6,0.3-0.8,0c-0.3-0.4,0.1-0.5,0.3-0.7c1.9-1.3,3.6-2.9,5-4.7c1.7-2.3,2.6-5,2.6-7.8c0-0.2,0-0.3-0.1-0.5
	c-0.1-0.1-0.2-0.2-0.2-0.3c-2.8,1.9-5.3,4.1-6.8,7.2c-0.5,1.5-0.9,3-1.2,4.5c-0.7,2.4-1.7,4.7-3.2,6.7c-0.3,0.5-0.9,0.7-1.5,0.6
	c-0.4,0-0.6-0.6-0.6-1c-0.4-3.1-1.3-6.1-0.2-9.2c0.1-0.5,0.3-1,0.6-1.4c1.2-1.8,2.5-3.6,4-5.2c0.2-0.2,0.5-0.5,0.8-0.4
	c0.5,0.1,0.4,0.6,0.5,0.9c0.1,0.4,0,0.8,0.1,1.2C30.7,34.5,30.8,35.4,31,36.3z M26.1,47.9c3.8-4.3,4.4-9.4,3.6-15.1
	c-2,2.4-3.9,4.4-4.4,7.4C24.7,42.8,25.4,45.4,26.1,47.9z"/>
<path d="M33.5,63.2c1.8-0.4,3.6-0.8,5.3-1.2c1.4-0.3,2.7-1.1,3.7-2.2c0.6-0.8,0.5-1.2-0.5-1.4c-0.7-0.2-1.4-0.2-2,0
	c-1.5,0.2-3,0.9-4.1,1.9c-0.7,0.7-1.5,1.3-2.3,1.9c-0.3,0.2-0.6,0.4-0.8,0.1c-0.3-0.3,0.1-0.5,0.3-0.7c2-1.5,3.9-3.3,5.6-5.2
	c0.9-1.1,1.6-2.3,2.2-3.6c0.6-1.7,1.2-3.4,1.9-5.3c-1.5,0.4-2.8,1.2-4,2.1c-0.9,0.7-1.8,1.4-2.7,2.1c-1.5,1.3-2.7,3-3.4,4.9
	c-0.7,1.7-0.5,3.5-1,5.1c-0.6,0-0.6-0.5-0.6-0.8c0-0.8,0-1.6,0.1-2.3c0.5-2.7,1.8-5.2,3.9-7.1c2.3-2,4.9-3.8,7.6-5.2
	c0.1,0,0.2-0.1,0.3-0.1c0.8-0.3,1.1-0.1,1,0.7c-0.1,0.8-0.4,1.5-0.7,2.2c-1,2.3-1.5,4.9-3.1,7c-0.3,0.4-0.8,0.8-1,1.3
	c0.4,0.2,0.8,0.2,1.3,0.1c1.3-0.3,2.4,0.4,3.6,0.6c0.5,0.1,0.4,0.5,0.2,0.9c-1,1.7-2.6,3-4.6,3.6c-1.5,0.5-3.1,0.8-4.7,1.1
	C34.3,63.8,33.8,64,33.5,63.2z"/>
<path d="M60.4,53.8c0.4,0.4,1.1,0.3,1.5,0.7c0.4,0.3,0.5,0.6,0.1,1c-0.9,1-2.1,1.8-3.4,2.1c-1.4,0.2-2.9,0.4-4.3,0.4
	c-0.2,0-0.3-0.1-0.4-0.2c0,0,0-0.1,0-0.1c0-0.1,0.2-0.2,0.3-0.3c0.4-0.1,0.7-0.1,1.1-0.1c0.9-0.1,1.8-0.1,2.6-0.2
	c0.9-0.1,1.7-0.5,2.4-1c0.3-0.2,0.7-0.5,0.5-0.9c-0.1-0.3-0.5-0.3-0.8-0.3c-1-0.1-2,0-2.9,0.5c-1.1,0.4-2.2,0.7-3.3,1
	c-0.3,0.1-0.7,0.2-0.8-0.2c-0.1-0.3,0.2-0.4,0.5-0.5c1.2-0.2,2.3-0.8,3.6-1.1c2-0.4,3.3-1.9,4.6-3.3c0.8-0.8,1.4-1.7,1.9-2.7
	c0.2-0.4,0.1-0.8-0.4-0.7c-2.3,0.2-4.6,1-6.6,2.3c-1.9,1.3-3.5,3-4.6,5c-0.1,0.2-0.2,0.3-0.4,0.5c-0.2,0.2-0.5,0.3-0.7,0.1
	c-0.3-0.2,0-0.4,0.1-0.7c2.2-3.8,5.6-6.1,9.5-7.6c1.3-0.3,2.7-0.5,4-0.5c0.7-0.1,0.6,0.4,0.4,0.8c-0.9,2.1-2.3,4-4.1,5.4
	C60.7,53.3,60.4,53.4,60.4,53.8z"/>
<path d="M56.1,9c1,4.5,0.1,8.5-3.3,11.8c-0.4,0.4-0.9,0.7-1.5,0.8c-0.2-0.9-0.4-1.8-0.6-2.7c-0.1-2.1,0.5-4.3,1.9-5.9
	c1-1.3,2-2.5,3.1-3.7C55.8,9.1,56,9.1,56.1,9z M55.3,11c-2.2,1.7-3.6,4.3-4,7c0,0.5,0,0.9,0.2,1.4c0.3,0.8,0.7,1,1.3,0.3
	c1.1-1.2,2-2.7,2.5-4.3C55.7,14,55.7,12.5,55.3,11L55.3,11z"/>
<path d="M75.5,41.4c-1.8,0.2-2.7,1.6-3.6,2.7c-1,1.2-1.1,2.8-1.7,4.4c-0.4-0.2-0.6-0.7-0.5-1.1c0.7-2.9,2.2-5.3,5-6.6
	c0.1-0.1,0.3-0.1,0.4-0.2c1.1-0.3,1.5,0,1.4,1.1c-0.3,2.5-1.6,4.8-3.6,6.3c-0.2,0.2-0.6,0.4-0.8,0c-0.2-0.3,0.1-0.5,0.3-0.6
	c1.1-0.9,2-2,2.6-3.3C75.3,43.2,75.5,42.3,75.5,41.4z"/>
<path d="M69.1,37.6c0.7-0.1,1.3-0.2,2-0.3c0.7,0,0.8,0.3,0.5,0.8c-0.9,1.9-2.7,3.2-4.8,3.7c-0.8,0.2-1.5,0.5-2.2,0.7
	c-0.5,0.2-1,0.2-1.5-0.1c-0.7-0.5-0.8-0.6-0.3-1.3c1.2-1.5,2.9-2.6,4.7-3.1C68,37.9,68.5,37.7,69.1,37.6L69.1,37.6z M63.5,41.8
	c1.9-0.3,3.8-0.9,5.4-1.9c0.6-0.5,1.1-1.1,1.3-1.9C67.4,38.5,65.1,39.5,63.5,41.8z"/>
<path d="M59.5,60.9c-2.1-0.8-4.4-0.6-6.2,0.7c-0.4,0.3-1.1,1.1-1.5,0.4c-0.3-0.5,0.6-0.8,1.1-1.1c2.1-1.4,4.7-1.7,7-0.9
	c1.1,0.3,1.1,0.6,0.5,1.5c-0.8,1.1-1.9,2-3.2,2.3c-1.3,0.3-2.6,0.5-3.9,0.6c-0.3,0-0.5-0.1-0.5-0.4c0-0.3,0.2-0.3,0.4-0.3
	c0.8-0.1,1.6-0.1,2.3-0.3C57.2,63.4,58.7,62.4,59.5,60.9z"/>
<path d="M27.9,54.8c4-6.1,8.7-11.7,13.9-16.8c0.2-0.2,0.5-0.4,0.8-0.1c0,0.1,0,0.2,0,0.3c-5.1,5.2-9.9,10.8-14.2,16.6
	C28.3,54.9,28.2,54.8,27.9,54.8z"/>
<path d="M67.6,9.3c0.8-0.2,0.9,0,0.8,0.8c-0.3,2.5-1.7,4.8-3.8,6.2c-0.6,0.5-1.3,0.9-2,1.3c-0.4,0.3-0.7,0.1-0.7-0.4
	c0-0.5,0.1-0.9,0.2-1.4c1-2.2,2.4-4.2,4.2-5.7C66.7,9.7,67.2,9.4,67.6,9.3z M67.3,10.5c-2,0.9-4.3,4.1-4.3,5.9
	C65.3,15,67,13.3,67.3,10.5z"/>
<path d="M76,32.9c-0.2-0.6,0.3-0.6,0.5-0.8c1.4-1,2.6-2.3,3.5-3.7c0.8-1.1,0.9-2.5,0.4-3.7c-2.6,0.9-4.9,2.2-6.3,4.9
	c-0.4-0.7-0.2-1.6,0.4-2.1c0.6-0.7,1.3-1.2,2.1-1.7c1.3-0.7,2.6-1.4,3.9-2c0.3-0.2,0.7-0.3,1-0.1c0.6,2.4-0.2,5-2,6.7
	C78.3,31.4,77.5,32.6,76,32.9z"/>
<path d="M45.2,25.4c0.3-2.2,2-4.3,0.5-6.7c-0.7,0.3-1.2,1-1.4,1.7c-0.5,1.7-1.1,3.5-0.4,5.3c0.1,0.2,0.1,0.6-0.2,0.6
	c-0.4,0.1-0.4-0.2-0.5-0.5c-0.6-1.9-0.4-3.9,0.4-5.6c0.4-1,1-2,1.7-2.8c0.2-0.2,0.4-0.5,0.8-0.5c0.4,0,0.4,0.4,0.5,0.7
	c0.9,2.4,0.6,5.1-0.8,7.3C45.7,25.3,45.5,25.5,45.2,25.4C45.2,25.4,45.2,25.4,45.2,25.4z"/>
<path d="M21.9,58.1c-1.9,1.6-3,3.9-2.9,6.4c-0.5-0.3-0.7-0.9-0.6-1.4c0.1-1.2,0.5-2.3,1.2-3.3c0.7-1,1.4-1.9,2.2-2.8
	c0.4-0.5,0.7-0.4,0.9,0.1c1.2,2.7,0.4,5.9-1.8,7.8c0,0-0.1,0-0.3-0.1c0.3-1.1,1.1-2,1.5-3.1C22.6,60.5,22.6,59.2,21.9,58.1z"/>
<path d="M19.2,53.6c0-1.4-0.4-2.8-1.2-4c-1.6,2-1.9,4.2-1.7,6.8c-0.6-0.3-0.9-1-0.8-1.7c0.1-2.1,0.8-4.2,2-6
	c0.2-0.3,0.4-0.5,0.7-0.6c0.2-0.2,0.5-0.2,0.6,0.2c0.4,1.3,0.8,2.6,1.1,3.9C20,52.7,19.7,53.3,19.2,53.6z"/>
<path d="M71.2,11.7c-0.9,0-1.7,0.4-2.3,1c-0.1,0.1-0.3,0.3-0.5,0.1c-0.2-0.2-0.1-0.4-0.1-0.6c0.2-0.4,0.5-0.8,1-1
	c0.8-0.3,1.6-0.6,2.4-0.8c0.8-0.2,1,0.1,0.7,0.8c-0.3,0.8-0.7,1.6-1.3,2.3C70,15,68.6,16,67,16.7c-0.2,0.2-0.5,0.1-0.7-0.1
	c0,0,0,0,0,0c-0.2-0.3,0.1-0.5,0.4-0.6c1.1-0.5,2.1-1.1,3-1.9C70.4,13.4,70.9,12.6,71.2,11.7z"/>
<path d="M38.4,18.2c0.3-1.5,1.3-2.4,1.3-3.6c0-0.2-0.1-0.4-0.2-0.6c-1.6,0.9-2.5,2.4-3.6,4c-0.4-0.6-0.3-1.4,0.2-1.9
	c1-1.2,2.2-2.2,3.4-3.2c0.2-0.2,0.6-0.3,0.9-0.2c0.4,0.2,0.2,0.5,0.2,0.8C40.6,15.5,40.2,16.5,38.4,18.2z"/>
<path d="M70.8,31.4c0,0.1,0,0.2,0,0.3c-0.7,1.6-2,2.9-3.6,3.7c-0.5,0.2-1.2,0-1.5-0.5c-0.3-0.3,0-0.8,0.3-1.1c1-1.2,2.4-2.2,3.9-2.6
	C70.3,31,70.7,31.1,70.8,31.4z M66.3,34.6c1.2-0.3,2.3-1.2,3-2.3C68,32.6,66.9,33.4,66.3,34.6z"/>
<path d="M49.2,26c-0.9,2.8-2.8,4.9-4.9,7.2C44.7,31.9,48.3,26.5,49.2,26z"/>
<path d="M44.3,35.1c0.6-1.7,1.5-2.6,2.6-2.8C46.3,33.5,45.4,34.4,44.3,35.1z"/>
<path d="M2.2,86c-0.3-0.2-0.2-0.5-0.1-0.6c1.1-1.4,2.2-2.7,3.4-4.1c0.1-0.2,0.3-0.3,0.5-0.1C6,81.4,6.1,81.6,6,81.7
	C4.7,83.1,3.5,84.6,2.2,86z"/>
</svg>
