<?xml version="1.0" encoding="utf-8"?>
<!-- Generator: Adobe Illustrator 23.0.3, SVG Export Plug-In . SVG Version: 6.00 Build 0)  -->
<svg version="1.1" id="Layer_1" xmlns="http://www.w3.org/2000/svg" xmlns:xlink="http://www.w3.org/1999/xlink" x="0px" y="0px"
	 viewBox="0 0 32 32" style="enable-background:new 0 0 32 32;" xml:space="preserve">
<style type="text/css">
	.st0{fill:#020203;}
</style>
<g>
	<path class="st0" d="M11.09,8.47c0.24-0.41,0.57-0.73,0.92-0.99c0.12-0.06,0.18-0.19,0.21-0.32c0.21-0.8,0.8-1.24,1.37-1.72
		c0.48-0.38,1.04-0.67,1.64-0.8c0.09-0.03,0.18-0.06,0.27-0.06c0.42,0.06,0.6-0.16,0.77-0.54c0.39-0.86,1.07-1.53,1.93-1.85
		c0.74-0.32,1.55-0.41,2.32-0.22c0.12,0.03,0.21,0.03,0.33,0.06c0.3,0,0.51,0.13,0.51,0.54c0.48-0.45,1.04-0.8,1.61-1.05
		c0.51-0.19,1.01-0.25,1.55-0.22c0.27,0,0.24,0.19,0.21,0.38c-0.03,0.35-0.03,0.35,0.27,0.35c0.36,0,0.74-0.03,1.1,0
		c0.27,0,0.48,0.19,0.57,0.45c0.24,0.51,0.3,1.08,0.15,1.62c0.39-0.22,0.63,0.03,0.83,0.22c0.21,0.19,0.39,0.41,0.51,0.7
		c0.27,0.67,0.24,1.43-0.03,2.07c-0.06,0.16-0.15,0.29-0.21,0.45c-0.09,0.16-0.15,0.32-0.21,0.51c-0.03,0.22,0.24,0.22,0.33,0.38
		c0.48,0.7,0.74,1.4,0.48,2.26c-0.3,0.86-0.86,1.62-1.61,2.1c-0.33,0.25-0.39,0.25-0.15,0.7c0.48,0.92,0.39,1.72-0.27,2.55
		c-0.24,0.32-0.51,0.57-0.8,0.83c-0.54,0.38-1.01,0.86-1.37,1.43c-0.09,0.16-0.24,0.25-0.39,0.25c-0.21,0.03-0.39,0.22-0.45,0.45
		c-0.45,1.15-1.22,2.13-2.26,2.74c-0.48,0.38-1.04,0.61-1.61,0.67c-0.18,0-0.24,0.13-0.3,0.25c-0.15,0.35-0.45,0.57-0.77,0.64
		c-0.12,0-0.15,0.1-0.21,0.19c-0.42,0.67-1.1,1.05-1.85,1.08c-0.45,0-0.89,0.03-1.34,0.1c-0.09,0.03-0.15,0-0.24-0.03
		c-0.33-0.16-0.71-0.06-0.89,0.29c-0.3,0.35-0.71,0.54-1.16,0.51c-0.45,0.03-0.89-0.03-1.34-0.19c-0.57-0.16-1.04-0.61-1.28-1.21
		c-0.06-0.13-0.12-0.22-0.18-0.35c-0.18-0.03-0.24,0.1-0.33,0.22c-0.45,0.73-0.89,1.47-1.28,2.23c-0.27,0.54-0.71,1.08-0.57,1.78
		c0,0.06-0.03,0.16-0.06,0.19c-0.3,0.1-0.39,0.45-0.68,0.54c-0.3,0.1-0.39,0.48-0.57,0.76c-0.18,0.25-0.3,0.54-0.45,0.83
		c-0.15,0.38-0.57,0.54-0.89,0.38c-0.06-0.03-0.12-0.06-0.15-0.1c-0.15-0.1-0.27-0.22-0.39-0.35C4.36,29.75,4,29.33,3.62,28.95
		c-0.27-0.29-0.3-0.38-0.06-0.7c0.24-0.35,0.51-0.67,0.77-0.99c0.18-0.22,0.36-0.41,0.54-0.64c0.57-0.67,0.95-1.47,1.58-2.04
		c0.12-0.13,0.21-0.32,0.42-0.19c0.12,0.06,0.15-0.06,0.21-0.13c0.42-0.48,0.8-0.96,1.16-1.47c0.09-0.16,0.12-0.25-0.03-0.38
		c-0.24-0.16-0.36-0.48-0.3-0.8c0.03-0.19-0.03-0.35-0.15-0.51c-0.18-0.25-0.24-0.54-0.18-0.86c0.06-0.22-0.03-0.45-0.18-0.57
		c-0.89-1.05-0.98-2.29-0.71-3.57c0.09-0.48,0.36-0.89,0.74-1.18c0.15-0.1,0.24-0.25,0.21-0.45c-0.06-0.51,0.21-1.02,0.65-1.18
		c0.18-0.06,0.18-0.19,0.15-0.35c-0.24-1.59,0.27-3.18,1.37-4.3c0.24-0.25,0.45-0.54,0.65-0.83c0.06-0.1,0.15-0.19,0.27-0.16
		c0.12,0.03,0.15,0.16,0.18,0.25C10.97,8.15,11.03,8.35,11.09,8.47z M13.97,23.79c0.39,0.48,0.95,0.7,1.55,0.61
		c0.3-0.03,0.63-0.06,0.92-0.03c0.63,0.03,1.22-0.29,1.58-0.83c0.21-0.29,0.36-0.57,0.74-0.61c0.09-0.03,0.15-0.06,0.18-0.13
		c0.18-0.19,0.18-0.25-0.06-0.41c-0.06-0.03-0.15-0.1-0.12-0.19c0.03-0.13,0.15-0.06,0.24-0.06c0.54,0.1,1.07,0,1.55-0.22
		c0.48-0.25,0.92-0.57,1.37-0.96c0.68-0.61,1.22-1.4,1.49-2.29c0.06-0.16,0.12-0.29,0.3-0.32c0.45-0.1,0.8-0.45,0.89-0.89
		c0.03-0.13,0.09-0.25,0.21-0.29c0.63-0.32,1.19-0.76,1.61-1.37c0.6-0.67,0.6-1.75-0.06-2.39c-0.03-0.03-0.06-0.06-0.09-0.1
		c-0.12-0.1-0.12-0.19-0.03-0.29c0.12-0.13,0.27-0.22,0.39-0.35c0.42-0.29,0.77-0.61,1.1-0.99c0.68-0.76,0.8-1.91,0.3-2.8
		c-0.24-0.45-0.33-0.48-0.8-0.35c-0.06,0-0.09,0-0.12-0.06c0-0.03,0-0.06,0-0.1c0.54-0.54,0.86-1.24,0.98-1.97
		c0.15-0.7-0.09-1.43-0.6-1.88c-0.12-0.16-0.36-0.19-0.51-0.06c-0.15,0.1-0.33,0.19-0.36,0.41C27.04,5,27.04,5,27.04,5.45
		c0,0.1-0.06,0.22,0.03,0.32c0.33-0.06,0.39-0.03,0.45,0.25c0.03,0.13,0.03,0.25,0,0.38c-0.09,0.54-0.36,1.05-0.74,1.47
		c-0.06,0.06-0.12,0.19-0.3,0.13c0.3-0.64,0.86-1.15,0.77-1.94c-0.18,0.03-0.3,0.16-0.33,0.35c-0.09,0.57-0.42,1.05-0.71,1.56
		c-0.06,0.1-0.12,0.19-0.3,0.1c0.18-0.45,0.48-0.8,0.63-1.24c0.12-0.48,0.18-1.02,0.12-1.53c-0.68,0.48-1.22,1.15-1.58,1.94
		c-0.03,0.1-0.03,0.22-0.15,0.19c-0.12-0.03-0.06-0.16-0.03-0.25c0.09-0.29,0.24-0.54,0.42-0.76c0.36-0.45,0.71-0.86,1.13-1.24
		c-0.33-0.19-0.36-0.19-0.12-0.45c0.15-0.16,0.24-0.38,0.27-0.64c0.06-0.45,0-0.92-0.18-1.37c-0.09-0.29-0.33-0.45-0.6-0.41
		c-0.39,0.06-0.77,0.06-1.16,0.03c-0.15,0-0.3,0.1-0.39,0.22c-0.09,0.16-0.21,0.29-0.33,0.41c-0.09,0.13-0.21,0.13-0.33,0.06l0,0
		C23.8,2.77,24,2.52,24.15,2.26c0.12-0.16,0.33-0.35,0.18-0.54c-0.09-0.13-0.36-0.1-0.57-0.06c-1.1,0.16-2.02,0.67-2.56,1.82
		c-0.03,0.06-0.06,0.13-0.09,0.16C21.06,3.7,21,3.76,20.91,3.7c-0.06-0.03-0.09-0.13-0.06-0.22c0.06-0.13,0.12-0.22,0.18-0.35
		c0.18-0.45,0.03-0.73-0.42-0.8c-0.27-0.06-0.54-0.1-0.83-0.1c-0.51-0.03-1.01,0.06-1.49,0.29c-0.89,0.41-1.58,1.21-1.93,2.17
		c-0.06,0.25-0.24,0.48-0.45,0.61C15.85,5,15.73,4.87,15.46,4.94c-1.1,0.25-2.05,0.89-2.71,1.88c-0.24,0.29-0.39,0.67-0.33,1.05
		c0.12,0.8,0,1.62-0.36,2.36c-0.03,0.06-0.06,0.19-0.21,0.13c0-0.16,0.09-0.29,0.12-0.41c0.18-0.54,0.24-1.11,0.24-1.72
		c-0.03-0.32-0.18-0.38-0.39-0.19c-0.39,0.38-0.65,0.8-0.57,1.4c0.03,0.38,0.03,0.8-0.06,1.18c-0.15,0.51-0.33,1.02-0.6,1.5
		c-0.24,0.61-0.57,1.15-0.95,1.62c-0.06,0.06-0.12,0.13-0.18,0.1c-0.12-0.06-0.06-0.16,0-0.25c0-0.03,0.03-0.06,0.06-0.06
		c0.39-0.38,0.57-0.89,0.83-1.37c0.63-1.02,0.8-2.29,0.45-3.47c-0.03-0.13-0.03-0.29-0.18-0.41C9.06,9.81,8.23,11.63,9,13.92
		c-0.09,0.06-0.21,0-0.27-0.1c-0.21-0.25-0.3-0.25-0.51-0.06c-0.12,0.13-0.21,0.29-0.24,0.48c-0.03,0.16-0.03,0.32,0,0.51
		c0.03,0.22,0,0.41-0.24,0.51c-0.18,0.1-0.33,0.25-0.45,0.45c-0.24,0.35-0.36,0.76-0.36,1.21c-0.03,0.99,0.12,1.91,0.77,2.68
		c0.18,0.19,0.24,0.45,0.21,0.7c-0.06,0.25,0,0.54,0.12,0.76c0.12,0.19,0.15,0.41,0.12,0.61c-0.03,0.22,0,0.45,0.15,0.61
		c0.24,0.22,0.54,0.35,0.83,0.35c0.27,0,0.51-0.13,0.6-0.38c0.06-0.1,0.12-0.16,0.18-0.22c0.27-0.32,0.57-0.64,0.86-0.92
		c0.09-0.06,0.18-0.19,0.27-0.06c0.09,0.13-0.06,0.19-0.15,0.25c-0.18,0.16-0.36,0.35-0.54,0.54c-0.65,0.67-1.1,1.5-1.64,2.26
		c-0.36,0.48-0.68,0.99-1.01,1.5c-0.06,0.1-0.09,0.19,0,0.25c0.12,0.1,0.15-0.03,0.21-0.13c0.36-0.57,0.71-1.15,1.1-1.72
		c0.24-0.41,0.54-0.83,0.83-1.21c0.48-0.48,1.01-0.89,1.58-1.21c0.09-0.03,0.18-0.1,0.24,0.03c-0.06,0.1-0.18,0.19-0.27,0.22
		c-0.48,0.29-0.92,0.64-1.31,1.02C9.93,23,9.9,23.25,10.05,23.44c0.15,0.25,0.24-0.16,0.39-0.06c0,0.48,0.24,0.92,0.57,1.18
		c1.13-1.47,2.5-2.26,4.23-2.29c0.15,0.13-0.06,0.25,0.06,0.41c0.51,0.03,1.01,0.06,1.55,0.1c0.18,0,0.24,0.1,0.15,0.25
		c-0.42,0.7-1.1,0.99-1.82,1.21c-0.03,0-0.06,0-0.09,0c-0.06,0-0.12-0.06-0.12-0.13c0-0.06,0.03-0.1,0.12-0.13
		c0.36-0.06,0.68-0.22,0.98-0.45c0.18-0.1,0.36-0.22,0.42-0.45C15.43,22.71,14.69,23.12,13.97,23.79z M6.24,28
		c-0.3-0.32-0.6-0.64-0.89-0.96c-0.09-0.13-0.24-0.16-0.36-0.06c-0.03,0.03-0.06,0.03-0.06,0.06c-0.39,0.41-0.77,0.89-1.1,1.37
		c-0.18,0.22-0.12,0.35,0.12,0.57c0.24,0.19,0.3-0.03,0.39-0.13c0.15-0.16,0.3-0.35,0.45-0.51c0.12-0.13,0.24-0.25,0.39-0.32
		c0.03,0.19-0.06,0.25-0.15,0.32c-0.21,0.22-0.42,0.45-0.63,0.67c-0.18,0.19-0.15,0.32,0,0.51c0.18,0.22,0.36,0.45,0.54,0.67
		c0.24,0.29,0.3,0.29,0.45-0.06c0.15-0.29,0.3-0.57,0.45-0.86c0.12-0.22,0.3-0.32,0.48-0.25L5.4,30.54c0.24,0,0.45-0.16,0.54-0.41
		c0.21-0.35,0.42-0.7,0.65-1.02c0.06-0.1,0.12-0.19,0.18-0.29s0.03-0.25-0.06-0.35l0,0c-0.09-0.06-0.15-0.19-0.27-0.22
		C6,28.82,5.61,29.46,5.02,29.91C5.31,29.21,5.82,28.66,6.24,28z M14.21,24.43c-0.06-0.06-0.12-0.13-0.18-0.16
		c-0.3-0.29-0.3-0.29-0.6-0.06c-0.48,0.35-1.04,0.41-1.58,0.54c-0.06,0.03-0.12,0-0.15-0.06c-0.03-0.06,0-0.13,0.06-0.16
		c0.12-0.1,0.27-0.16,0.45-0.16c0.39,0,0.74-0.13,1.04-0.38c0.39-0.25,0.74-0.54,1.1-0.83c0.18-0.13,0.3-0.29,0.42-0.48
		c-0.06-0.1-0.15-0.1-0.24-0.06c-1.22,0.19-2.32,0.83-3.1,1.82c-0.3,0.35-0.27,0.48,0.15,0.64C12.55,25.35,13.47,25.42,14.21,24.43z
		 M5.67,26.28c-0.15,0-0.27,0.16-0.27,0.32c0,0.1,0.06,0.19,0.12,0.22c0.45,0.45,0.89,0.92,1.34,1.37c0.09,0.06,0.18,0.13,0.27,0.19
		c0.06,0.03,0.15,0.03,0.21-0.03c0.06-0.06,0.06-0.16,0-0.22l0,0c-0.03-0.06-0.06-0.1-0.12-0.16c-0.39-0.41-0.74-0.86-1.07-1.31
		c-0.09-0.13-0.18-0.22-0.3-0.32C5.82,26.28,5.76,26.21,5.67,26.28L5.67,26.28z M7.57,27.9c0.09-0.38,0.09-0.38-0.09-0.61
		c-0.12-0.16-0.21-0.32-0.3-0.51c-0.24-0.51-0.63-0.92-0.89-1.43c-0.39,0.41-0.42,0.54-0.09,0.89c0.18,0.19,0.36,0.41,0.51,0.64
		C6.95,27.26,7.25,27.58,7.57,27.9L7.57,27.9z M8.11,26.4c0.27-0.48,0.57-0.96,0.8-1.43c0.3-0.45,0.57-0.92,0.77-1.43
		c-0.09,0-0.09,0-0.12,0.03c-0.63,0.8-1.16,1.62-1.64,2.52C7.84,26.21,7.96,26.31,8.11,26.4L8.11,26.4z M6.77,24.81
		c-0.24,0.13-0.3,0.29-0.12,0.57c0.3,0.45,0.6,0.92,0.86,1.4c0.06,0.1,0.12,0.29,0.27,0.19c0.12-0.1,0.12-0.25,0-0.41
		c-0.03-0.03-0.06-0.1-0.06-0.13c-0.3-0.54-0.68-0.99-0.86-1.59C6.86,24.84,6.8,24.81,6.77,24.81z M8.77,22.84
		c-0.09-0.03-0.21,0.03-0.24,0.13c-0.21,0.29-0.42,0.57-0.65,0.83c-0.21,0.25-0.42,0.48-0.63,0.73c-0.06,0.1-0.24,0.22-0.09,0.32
		c0.12,0.1,0.18-0.1,0.24-0.16c0.3-0.38,0.6-0.8,0.89-1.21C8.5,23.31,8.68,23.09,8.77,22.84z M8.53,23.79
		c-0.48,0.38-0.74,0.96-1.16,1.4c-0.06,0.06-0.09,0.13,0,0.19c0.06,0.03,0.12,0,0.15-0.06C7.87,24.81,8.2,24.3,8.53,23.79z"/>
	<path class="st0" d="M19.9,12.93c0.36,0.13,0.65,0.25,0.98,0.38c0.24,0.1,0.27,0.22,0.06,0.38l-0.03,0.03
		c-0.83,0.51-1.7,0.86-2.71,0.57c-0.06,0-0.12-0.03-0.18-0.06c-0.12-0.1-0.42-0.06-0.3-0.32c0.06-0.16,0.24,0.03,0.36,0.1
		c0.27,0.1,0.57,0.16,0.86,0.16c0.57,0,1.13-0.19,1.61-0.57c0.03-0.13-0.09-0.16-0.15-0.19c-0.57-0.29-1.19-0.29-1.76-0.06
		c-0.33,0.19-0.65,0.35-1.01,0.48c-0.09,0.03-0.18,0.13-0.24,0.22c-0.36,0.35-0.68,0.73-1.01,1.08c-0.06,0.06-0.12,0.13-0.21,0.1
		c-0.09-0.13,0.03-0.19,0.09-0.25c0.36-0.51,0.77-0.99,1.25-1.37c0.12-0.1,0.21-0.25,0.18-0.41c-0.09-0.61,0-1.21,0.18-1.75
		c0.27-0.61,0.63-1.15,1.04-1.62c0.15-0.19,0.27-0.16,0.36,0.06c0.09,0.19,0.12,0.41,0.18,0.64c0.18,0.03,0.24-0.13,0.3-0.25
		c0.8-0.99,1.82-1.78,2.95-2.26c0.21-0.1,0.45-0.16,0.65-0.22s0.27,0,0.24,0.25c-0.06,0.32-0.15,0.61-0.27,0.89
		c-0.65,1.56-1.73,2.83-3.07,3.76c-0.09,0.06-0.15,0.1-0.24,0.16C19.96,12.84,19.93,12.87,19.9,12.93z M18.59,12.96
		c0.71-0.03,1.37-0.35,1.93-0.83c0.27-0.22,0.51-0.48,0.77-0.7c0.92-0.8,1.43-1.88,1.9-2.99c0.06-0.13,0.12-0.25,0.03-0.38
		c-0.09-0.1-0.21,0-0.3,0.03c-0.03,0-0.09,0.03-0.12,0.06c-0.8,0.35-1.55,0.86-2.17,1.5c-0.57,0.54-1.13,1.11-1.31,1.94
		c0,0.06-0.03,0.13-0.09,0.16C18.88,12.07,18.8,12.52,18.59,12.96z M17.93,13.15c0.15-0.1,0.3-0.22,0.39-0.35
		c0.3-0.35,0.36-0.83,0.63-1.21c0.3-0.41,0.18-0.89,0.15-1.34c0-0.06-0.03-0.13-0.09-0.16c-0.09-0.03-0.15,0.03-0.18,0.13
		c-0.21,0.29-0.42,0.61-0.6,0.92C17.87,11.75,17.78,12.45,17.93,13.15z"/>
	<path class="st0" d="M12.66,12.9c0.45-0.96,1.16-1.53,1.82-2.17c0.09-0.1,0.18-0.16,0.3-0.22c0.3-0.19,0.39-0.13,0.42,0.25
		c0.12,1.5-0.48,2.71-1.49,3.69c-0.3,0.29-0.6,0.54-0.89,0.8c-0.09,0.06-0.18,0.1-0.24,0c-0.09-0.13,0.03-0.16,0.09-0.22
		c0.57-0.41,1.07-0.92,1.49-1.5c0.51-0.73,0.77-1.59,0.77-2.48c0-0.06,0-0.1-0.03-0.16c-0.03-0.03-0.06-0.06-0.06-0.1
		c-0.83,0.61-1.58,1.31-2.02,2.29c-0.15,0.48-0.27,0.96-0.36,1.43c-0.21,0.76-0.51,1.5-0.95,2.13c-0.09,0.16-0.27,0.22-0.45,0.19
		c-0.12,0-0.18-0.19-0.18-0.32c-0.12-0.99-0.39-1.94-0.06-2.93c0.03-0.16,0.09-0.32,0.18-0.45c0.36-0.57,0.74-1.15,1.19-1.66
		c0.06-0.06,0.15-0.16,0.24-0.13c0.15,0.03,0.12,0.19,0.15,0.29c0.03,0.13,0,0.25,0.03,0.38C12.58,12.33,12.6,12.61,12.66,12.9z
		 M11.21,16.59c1.13-1.37,1.31-2.99,1.07-4.81c-0.6,0.76-1.16,1.4-1.31,2.36C10.79,14.97,11,15.8,11.21,16.59z"/>
	<path class="st0" d="M13.41,21.47c0.54-0.13,1.07-0.25,1.58-0.38c0.42-0.1,0.8-0.35,1.1-0.7c0.18-0.25,0.15-0.38-0.15-0.45
		c-0.21-0.06-0.42-0.06-0.6,0c-0.45,0.06-0.89,0.29-1.22,0.61c-0.21,0.22-0.45,0.41-0.68,0.61c-0.09,0.06-0.18,0.13-0.24,0.03
		c-0.09-0.1,0.03-0.16,0.09-0.22c0.6-0.48,1.16-1.05,1.67-1.66c0.27-0.35,0.48-0.73,0.65-1.15c0.18-0.54,0.36-1.08,0.57-1.69
		c-0.45,0.13-0.83,0.38-1.19,0.67c-0.27,0.22-0.54,0.45-0.8,0.67c-0.45,0.41-0.8,0.96-1.01,1.56c-0.21,0.54-0.15,1.11-0.3,1.62
		c-0.18,0-0.18-0.16-0.18-0.25c0-0.25,0-0.51,0.03-0.73c0.15-0.86,0.54-1.66,1.16-2.26c0.68-0.64,1.46-1.21,2.26-1.66
		c0.03,0,0.06-0.03,0.09-0.03c0.24-0.1,0.33-0.03,0.3,0.22c-0.03,0.25-0.12,0.48-0.21,0.7c-0.3,0.73-0.45,1.56-0.92,2.23
		c-0.09,0.13-0.24,0.25-0.3,0.41c0.12,0.06,0.24,0.06,0.39,0.03c0.39-0.1,0.71,0.13,1.07,0.19c0.15,0.03,0.12,0.16,0.06,0.29
		c-0.3,0.54-0.77,0.96-1.37,1.15c-0.45,0.16-0.92,0.25-1.4,0.35C13.65,21.66,13.5,21.72,13.41,21.47z"/>
	<path class="st0" d="M21.41,18.47c0.12,0.13,0.33,0.1,0.45,0.22c0.12,0.1,0.15,0.19,0.03,0.32c-0.27,0.32-0.63,0.57-1.01,0.67
		c-0.42,0.06-0.86,0.13-1.28,0.13c-0.06,0-0.09-0.03-0.12-0.06v-0.03c0-0.03,0.06-0.06,0.09-0.1c0.12-0.03,0.21-0.03,0.33-0.03
		c0.27-0.03,0.54-0.03,0.77-0.06c0.27-0.03,0.51-0.16,0.71-0.32c0.09-0.06,0.21-0.16,0.15-0.29c-0.03-0.1-0.15-0.1-0.24-0.1
		c-0.3-0.03-0.6,0-0.86,0.16c-0.33,0.13-0.65,0.22-0.98,0.32c-0.09,0.03-0.21,0.06-0.24-0.06c-0.03-0.1,0.06-0.13,0.15-0.16
		c0.36-0.06,0.68-0.25,1.07-0.35c0.6-0.13,0.98-0.61,1.37-1.05c0.24-0.25,0.42-0.54,0.57-0.86c0.06-0.13,0.03-0.25-0.12-0.22
		c-0.68,0.06-1.37,0.32-1.96,0.73c-0.57,0.41-1.04,0.96-1.37,1.59c-0.03,0.06-0.06,0.1-0.12,0.16s-0.15,0.1-0.21,0.03
		c-0.09-0.06,0-0.13,0.03-0.22c0.65-1.21,1.67-1.94,2.83-2.42c0.39-0.1,0.8-0.16,1.19-0.16c0.21-0.03,0.18,0.13,0.12,0.25
		c-0.27,0.67-0.68,1.27-1.22,1.72C21.5,18.31,21.41,18.35,21.41,18.47z"/>
	<path class="st0" d="M20.13,4.21c0.3,1.43,0.03,2.71-0.98,3.76c-0.12,0.13-0.27,0.22-0.45,0.25c-0.06-0.29-0.12-0.57-0.18-0.86
		c-0.03-0.67,0.15-1.37,0.57-1.88c0.3-0.41,0.6-0.8,0.92-1.18C20.05,4.24,20.11,4.24,20.13,4.21z M19.9,4.84
		c-0.65,0.54-1.07,1.37-1.19,2.23c0,0.16,0,0.29,0.06,0.45c0.09,0.25,0.21,0.32,0.39,0.1c0.33-0.38,0.6-0.86,0.74-1.37
		C20.02,5.8,20.02,5.32,19.9,4.84L19.9,4.84z"/>
	<path class="st0" d="M25.91,14.52c-0.54,0.06-0.8,0.51-1.07,0.86c-0.3,0.38-0.33,0.89-0.51,1.4c-0.12-0.06-0.18-0.22-0.15-0.35
		c0.21-0.92,0.65-1.69,1.49-2.1c0.03-0.03,0.09-0.03,0.12-0.06c0.33-0.1,0.45,0,0.42,0.35c-0.09,0.8-0.48,1.53-1.07,2.01
		c-0.06,0.06-0.18,0.13-0.24,0c-0.06-0.1,0.03-0.16,0.09-0.19c0.33-0.29,0.6-0.64,0.77-1.05C25.85,15.1,25.91,14.81,25.91,14.52z"/>
	<path class="st0" d="M24,13.31c0.21-0.03,0.39-0.06,0.6-0.1c0.21,0,0.24,0.1,0.15,0.25c-0.27,0.61-0.8,1.02-1.43,1.18
		c-0.24,0.06-0.45,0.16-0.65,0.22c-0.15,0.06-0.3,0.06-0.45-0.03c-0.21-0.16-0.24-0.19-0.09-0.41c0.36-0.48,0.86-0.83,1.4-0.99
		C23.68,13.41,23.83,13.35,24,13.31L24,13.31z M22.34,14.65c0.57-0.1,1.13-0.29,1.61-0.61c0.18-0.16,0.33-0.35,0.39-0.61
		C23.5,13.6,22.81,13.92,22.34,14.65z"/>
	<path class="st0" d="M21.15,20.73c-0.63-0.25-1.31-0.19-1.85,0.22c-0.12,0.1-0.33,0.35-0.45,0.13c-0.09-0.16,0.18-0.25,0.33-0.35
		c0.63-0.45,1.4-0.54,2.08-0.29c0.33,0.1,0.33,0.19,0.15,0.48c-0.24,0.35-0.57,0.64-0.95,0.73s-0.77,0.16-1.16,0.19
		c-0.09,0-0.15-0.03-0.15-0.13s0.06-0.1,0.12-0.1c0.24-0.03,0.48-0.03,0.68-0.1C20.46,21.53,20.91,21.21,21.15,20.73z"/>
	<path class="st0" d="M11.74,18.79c1.19-1.94,2.59-3.73,4.14-5.35c0.06-0.06,0.15-0.13,0.24-0.03c0,0.03,0,0.06,0,0.1
		c-1.52,1.66-2.95,3.44-4.23,5.29C11.86,18.82,11.83,18.79,11.74,18.79z"/>
	<path class="st0" d="M23.56,4.3c0.24-0.06,0.27,0,0.24,0.25c-0.09,0.8-0.51,1.53-1.13,1.97c-0.18,0.16-0.39,0.29-0.6,0.41
		c-0.12,0.1-0.21,0.03-0.21-0.13s0.03-0.29,0.06-0.45c0.3-0.7,0.71-1.34,1.25-1.82C23.29,4.43,23.44,4.33,23.56,4.3z M23.47,4.68
		c-0.6,0.29-1.28,1.31-1.28,1.88C22.87,6.12,23.38,5.57,23.47,4.68z"/>
	<path class="st0" d="M26.06,11.82c-0.06-0.19,0.09-0.19,0.15-0.25c0.42-0.32,0.77-0.73,1.04-1.18c0.24-0.35,0.27-0.8,0.12-1.18
		c-0.77,0.29-1.46,0.7-1.88,1.56c-0.12-0.22-0.06-0.51,0.12-0.67c0.18-0.22,0.39-0.38,0.63-0.54c0.39-0.22,0.77-0.45,1.16-0.64
		c0.09-0.06,0.21-0.1,0.3-0.03c0.18,0.76-0.06,1.59-0.6,2.13C26.74,11.34,26.5,11.72,26.06,11.82z"/>
	<path class="st0" d="M16.89,9.43c0.09-0.7,0.6-1.37,0.15-2.13c-0.21,0.1-0.36,0.32-0.42,0.54c-0.15,0.54-0.33,1.11-0.12,1.69
		c0.03,0.06,0.03,0.19-0.06,0.19c-0.12,0.03-0.12-0.06-0.15-0.16c-0.18-0.61-0.12-1.24,0.12-1.78c0.12-0.32,0.3-0.64,0.51-0.89
		c0.06-0.06,0.12-0.16,0.24-0.16c0.12,0,0.12,0.13,0.15,0.22c0.27,0.76,0.18,1.62-0.24,2.32C17.04,9.4,16.98,9.46,16.89,9.43
		L16.89,9.43z"/>
	<path class="st0" d="M9.96,19.84c-0.57,0.51-0.89,1.24-0.86,2.04c-0.15-0.1-0.21-0.29-0.18-0.45c0.03-0.38,0.15-0.73,0.36-1.05
		c0.21-0.32,0.42-0.61,0.65-0.89c0.12-0.16,0.21-0.13,0.27,0.03c0.36,0.86,0.12,1.88-0.54,2.48c0,0-0.03,0-0.09-0.03
		c0.09-0.35,0.33-0.64,0.45-0.99C10.16,20.61,10.16,20.19,9.96,19.84z"/>
	<path class="st0" d="M9.15,18.41c0-0.45-0.12-0.89-0.36-1.27c-0.48,0.64-0.57,1.34-0.51,2.17c-0.18-0.1-0.27-0.32-0.24-0.54
		c0.03-0.67,0.24-1.34,0.6-1.91c0.06-0.1,0.12-0.16,0.21-0.19c0.06-0.06,0.15-0.06,0.18,0.06c0.12,0.41,0.24,0.83,0.33,1.24
		C9.39,18.12,9.3,18.31,9.15,18.41z"/>
	<path class="st0" d="M24.63,5.07c-0.27,0-0.51,0.13-0.68,0.32c-0.03,0.03-0.09,0.1-0.15,0.03c-0.06-0.06-0.03-0.13-0.03-0.19
		c0.06-0.13,0.15-0.25,0.3-0.32c0.24-0.1,0.48-0.19,0.71-0.25c0.24-0.06,0.3,0.03,0.21,0.25c-0.09,0.25-0.21,0.51-0.39,0.73
		c-0.33,0.48-0.74,0.8-1.22,1.02c-0.06,0.06-0.15,0.03-0.21-0.03l0,0c-0.06-0.1,0.03-0.16,0.12-0.19c0.33-0.16,0.63-0.35,0.89-0.61
		C24.39,5.61,24.54,5.35,24.63,5.07z"/>
	<path class="st0" d="M14.87,7.14c0.09-0.48,0.39-0.76,0.39-1.15c0-0.06-0.03-0.13-0.06-0.19c-0.48,0.29-0.74,0.76-1.07,1.27
		C14,6.88,14.03,6.63,14.18,6.47c0.3-0.38,0.65-0.7,1.01-1.02c0.06-0.06,0.18-0.1,0.27-0.06c0.12,0.06,0.06,0.16,0.06,0.25
		C15.52,6.28,15.4,6.59,14.87,7.14z"/>
	<path class="st0" d="M24.51,11.34c0,0.03,0,0.06,0,0.1c-0.21,0.51-0.6,0.92-1.07,1.18c-0.15,0.06-0.36,0-0.45-0.16
		c-0.09-0.1,0-0.25,0.09-0.35c0.3-0.38,0.71-0.7,1.16-0.83C24.36,11.21,24.48,11.24,24.51,11.34z M23.17,12.36
		c0.36-0.1,0.68-0.38,0.89-0.73C23.68,11.72,23.35,11.98,23.17,12.36z"/>
	<path class="st0" d="M18.08,9.62c-0.27,0.89-0.83,1.56-1.46,2.29C16.74,11.5,17.81,9.78,18.08,9.62z"/>
	<path class="st0" d="M16.62,12.52c0.18-0.54,0.45-0.83,0.77-0.89C17.22,12.01,16.95,12.29,16.62,12.52z"/>
	<path class="st0" d="M4.09,28.73C4,28.66,4.03,28.57,4.06,28.54c0.33-0.45,0.65-0.86,1.01-1.31c0.03-0.06,0.09-0.1,0.15-0.03
		c0,0.06,0.03,0.13,0,0.16C4.84,27.8,4.48,28.28,4.09,28.73z"/>
</g>
</svg>
